<svg aria-hidden="true" style="position:absolute;width:0;height:0" xmlns="http://www.w3.org/2000/svg" overflow="hidden"><defs><symbol id="icon-close" viewBox="0 0 32 32"><path d="M23.734 10.304l-1.504-1.504-5.963 5.962-5.962-5.962-1.504 1.504 5.962 5.962-5.962 5.963 1.504 1.504 5.962-5.963 5.963 5.963 1.504-1.504-5.963-5.963 5.963-5.962z"/></symbol><symbol id="icon-menu" viewBox="0 0 32 32"><path d="M6.4 11.734v-2.134h19.2v2.134h-19.2zM6.4 17.066h19.2v-2.133h-19.2v2.133zM6.4 22.4h19.2v-2.134h-19.2v2.134z"/></symbol><symbol id="icon-copyright" viewBox="0 0 32 32"><path fill="var(--color2, #9da4bd)" d="M15.808 11.424c2.048.096 2.576 1.84 2.608 2.656h2.864c-.128-3.168-2.384-5.104-5.52-5.104-3.536 0-6.16 2.224-6.16 7.248 0 3.104 1.488 6.784 6.144 6.784 3.552 0 5.456-2.64 5.504-4.72h-2.864c-.048.944-.72 2.208-2.608 2.304-2.096-.064-2.976-1.696-2.976-4.368 0-4.624 2.048-4.768 3.008-4.8zM16 0C7.168 0 0 7.168 0 16s7.168 16 16 16 16-7.168 16-16S24.832 0 16 0zm0 28.8c-7.066-.009-12.791-5.734-12.8-12.799V16C3.2 8.944 8.944 3.2 16 3.2S28.8 8.944 28.8 16 23.056 28.8 16 28.8z"/></symbol><symbol id="icon-facebook" viewBox="0 0 32 32"><path d="M21.328 5.312h2.923V.224A36.483 36.483 0 0020.143 0h-.156.008c-4.213 0-7.099 2.65-7.099 7.52V12H8.25v5.688h4.646V32h5.699V17.69h4.459l.707-5.688h-5.168V8.08c0-1.643.443-2.768 2.734-2.768z"/></symbol><symbol id="icon-instagram" viewBox="0 0 32 32"><path d="M31.968 9.408c-.074-1.701-.349-2.869-.744-3.882a7.84 7.84 0 00-1.847-2.837l-.001-.001A7.906 7.906 0 0026.598.861l-.054-.018C25.523.449 24.362.176 22.661.101 20.949.019 20.405 0 16.059 0c-4.344 0-4.888.019-6.595.094-1.701.074-2.869.349-3.88.742a7.847 7.847 0 00-2.839 1.85l-.001.001A7.9 7.9 0 00.919 5.465l-.018.054C.506 6.538.232 7.7.157 9.401c-.082 1.712-.101 2.256-.101 6.602 0 4.344.019 4.888.094 6.595.075 1.701.35 2.869.744 3.882a7.915 7.915 0 001.849 2.837l.001.001c.8.813 1.77 1.443 2.832 1.843 1.019.395 2.182.67 3.882.744 1.707.075 2.251.094 6.595.094 4.346 0 4.89-.019 6.595-.094 1.701-.074 2.869-.349 3.882-.742a8.237 8.237 0 004.664-4.628l.019-.055c.394-1.019.669-2.182.744-3.882.075-1.707.093-2.251.093-6.595s-.006-4.888-.08-6.595zm-2.88 13.066c-.07 1.563-.333 2.406-.552 2.97a5.336 5.336 0 01-3.001 3.024l-.036.013c-.563.219-1.413.482-2.97.55-1.688.075-2.194.094-6.464.094-4.269 0-4.782-.019-6.464-.094-1.563-.069-2.406-.331-2.97-.55a4.953 4.953 0 01-1.836-1.192l-.001-.001a4.978 4.978 0 01-1.184-1.803l-.011-.034c-.218-.563-.48-1.413-.549-2.97-.075-1.688-.094-2.195-.094-6.464 0-4.27.019-4.784.094-6.464.069-1.563.331-2.406.549-2.97a4.897 4.897 0 011.198-1.837l.002-.002a4.972 4.972 0 011.806-1.182l.034-.011c.56-.219 1.411-.48 2.968-.55 1.688-.074 2.194-.093 6.464-.093 4.275 0 4.782.019 6.464.093 1.562.069 2.406.331 2.97.55a4.91 4.91 0 011.837 1.194c.531.52.938 1.144 1.195 1.84.218.56.48 1.411.549 2.968.075 1.688.094 2.194.094 6.464 0 4.269-.019 4.768-.094 6.458z"/><path d="M16.059 7.782a8.223 8.223 0 00-8.219 8.221v.002a8.222 8.222 0 1016.444 0 8.222 8.222 0 00-8.222-8.222h-.002zm0 13.552a5.333 5.333 0 01.001-10.666h.001a5.334 5.334 0 110 10.668zM26.525 7.458a1.92 1.92 0 01-3.84 0 1.92 1.92 0 013.84 0z"/></symbol><symbol id="icon-linkedin" viewBox="0 0 32 32"><path d="M31.992 32H32V20.262c0-5.741-1.237-10.163-7.947-10.163-3.227 0-5.392 1.77-6.277 3.45h-.093v-2.914h-6.365v21.363h6.627V21.42c0-2.786.528-5.48 3.978-5.48 3.398 0 3.448 3.179 3.448 5.658V32h6.621zM.528 10.635h6.635V32H.528V10.635zM3.843 0A3.843 3.843 0 000 3.843c0 2.12 1.722 3.878 3.843 3.878 2.12 0 3.842-1.757 3.842-3.878S5.965.002 3.844 0z"/></symbol><symbol id="icon-logo" viewBox="0 0 39 32"><path d="M22.371 9.64l-.749-.571a.57.57 0 00-.8.079l-.001.001-10.36 11.897.16.177 2.566-2.366a.395.395 0 01.147-.76h.007c.174 0 .321.114.371.272l.001.003 3.383-3.137a.291.291 0 01.366 0h-.001l.171.126a.285.285 0 00.382-.046l4.423-4.96a.473.473 0 00-.067-.714l-.001-.001z"/><path d="M27.24 12.989a22.87 22.87 0 01-7.335 3.477l-.162.037c-2.401.638-5.193 1.072-8.063 1.208l-.092.003c.055.406.155.805.297 1.189 1.554 1.406 13.257-.994 15.543-3.771.486-.577-.189-2.143-.189-2.143zm-13.897 5.868a.389.389 0 11.389-.389v.006a.382.382 0 01-.382.382h-.007zM2.286 12.166l.091-.394 1.486.337c.123.226.198.475.223.731a2.43 2.43 0 01-.051.811 2.157 2.157 0 01-.493.997l.002-.002a1.97 1.97 0 01-.866.568l-.014.004a2.109 2.109 0 01-1.095.038l.014.003a2.001 2.001 0 01-.955-.504l.001.001a1.883 1.883 0 01-.54-.884l-.003-.013a2.15 2.15 0 01.004-1.158l-.004.015c.061-.28.171-.547.326-.789.147-.22.339-.399.563-.527l.008-.004.206.314a1.64 1.64 0 00-.753 1.099l-.002.01a1.792 1.792 0 00.02.91l-.003-.013c.077.278.229.529.44.726.217.21.488.354.783.417.286.08.589.08.874 0 .274-.09.52-.25.714-.463.2-.23.337-.507.4-.806a1.755 1.755 0 00-.073-1.103l.004.012-1.309-.331zM5.52 8.571l-1.331 1.777.571 1.023-.263.354-2.114-3.857.246-.337 4.303.926-.269.354-1.143-.24zm-.377-.091l-2.286-.514L4 10.017 5.143 8.48zm0-3.594l.343-.257 2.177 2.914L9.457 6.2l.217.291-2.131 1.594-2.4-3.2zm3.6-2.383l.383-.171 1.509 3.303 2.04-.926.149.331-2.423 1.103-1.657-3.64zm7.531 1.314l.086.36-2.754.646-.914-3.897 2.674-.623.08.354-2.286.531.326 1.383 2.011-.474.086.354-2.017.469.343 1.446 2.366-.549zm3.926.143l-.954-1.257a2.847 2.847 0 01-.32 0l-1.074.034.04 1.269h-.423l-.131-4L18.858 0a1.8 1.8 0 011.217.329L20.07.325c.287.232.469.585.469.979v.016-.001c.017.282-.057.563-.211.8a1.34 1.34 0 01-.653.483l-.009.003 1 1.337-.463.017zm-.4-1.88a.909.909 0 00.291-.752v-.016a.916.916 0 00-.336-.71l-.002-.001a1.373 1.373 0 00-.902-.234h.005l-1.086.04.069 2 1.063-.034a1.36 1.36 0 00.9-.294l-.003.002zm3.423.817l-.206 1.366L22.6 4.2l.211-1.343L21.628 0l.446.069 1.011 2.434L24.799.486l.4.086-1.977 2.326zm5.651-.24l.497.646-.217.171-.497-.663-.314.749-.24-.103.32-.749-.823.109v-.274l.811-.091-.503-.646.223-.171.44.651.309-.754.246.103-.291.766.823-.114v.28l-.783.091zm1.909 4.606a1.565 1.565 0 01-.245-.684l-.001-.007.337-.149c.025.226.099.445.217.64.127.219.294.413.491.571.197.189.452.318.736.359l.007.001a.62.62 0 00.536-.221l.001-.001a.51.51 0 00.133-.345l-.002-.045v.002a1.054 1.054 0 00-.14-.399l.003.005a5.935 5.935 0 00-.359-.523l.01.014a4.995 4.995 0 01-.398-.603l-.013-.026a1.133 1.133 0 01-.149-.536v-.001a.84.84 0 01.223-.571c.123-.148.283-.261.467-.324l.007-.002a1.125 1.125 0 01.642.002l-.008-.002c.28.093.522.234.728.414l-.002-.002c.176.146.331.315.463.503.121.174.212.367.269.571l-.326.171a2.006 2.006 0 00-.256-.544l.005.007a2.1 2.1 0 00-.379-.391l-.004-.003a1.265 1.265 0 00-.731-.348l-.006-.001a.616.616 0 00-.536.233l-.001.001a.49.49 0 00-.131.39v-.002a.934.934 0 00.137.406c.08.131.194.303.349.509.153.194.29.401.411.617.091.154.148.338.154.535v.002a.84.84 0 01-.223.571 1.02 1.02 0 01-.473.324l-.007.002a1.093 1.093 0 01-.642-.002l.008.002a2.115 2.115 0 01-.734-.414l.003.002a2.626 2.626 0 01-.565-.695l-.007-.013zm5.748.834l-.806-1.143.297-.211 1.857 2.651-.297.211-.806-1.143-2.983 2.086-.24-.349 2.977-2.103zm-1.28 4.697c.107-.357.306-.659.569-.89l.002-.002c.256-.23.573-.396.924-.472l.013-.002a2.086 2.086 0 011.089.044l-.015-.004c.348.117.642.314.873.57l.002.002c.238.272.409.609.483.981l.002.014a2.21 2.21 0 01-.003 1.118l.004-.015a1.975 1.975 0 01-.569.89l-.002.002a2.111 2.111 0 01-2.055.441l.015.004a1.912 1.912 0 01-.872-.569l-.002-.002a2.137 2.137 0 01-.483-.975l-.002-.014a2.187 2.187 0 01.033-1.136l-.004.016zM36 14.611a1.575 1.575 0 001.207.533c.446 0 .854-.165 1.166-.438l-.002.002c.211-.194.367-.44.451-.714a1.835 1.835 0 00-.374-1.683l.002.003a1.63 1.63 0 00-.726-.46l-.012-.003a1.697 1.697 0 00-.892.003l.012-.003c-.303.06-.568.199-.778.395l.001-.001a1.594 1.594 0 00-.448.709l-.003.011a1.705 1.705 0 00.003.898l-.003-.012c.067.296.205.553.395.761l-.001-.001zm-1.183 4.818l1.48-.571c0-.103.034-.206.063-.314l.28-1.034-1.211-.314.109-.406 3.863 1.034-.389 1.446c-.092.435-.33.803-.659 1.06l-.004.003a1.226 1.226 0 01-1.094.157l.009.003a1.242 1.242 0 01-.977-1.205l-1.577.571.109-.429zm1.914.16a1.03 1.03 0 001.439.38l-.004.003c.246-.199.421-.478.484-.797l.001-.009.274-1.029-1.937-.52-.274 1.029a1.366 1.366 0 00.02.952l-.003-.009zm-3.965 3.52l-.291-.223 1.714-2.257 3.189 2.417-1.657 2.189-.291-.223 1.4-1.846-1.143-.863-1.251 1.651-.286-.217 1.28-1.651-1.183-.897-1.48 1.92zm-1.337 4.554l-.817.046v-.274l.817-.006-.44-.68.223-.143.434.686.354-.766.246.131-.389.72.817-.046v.28h-.829l.44.68-.223.143-.434-.686-.377.743-.24-.137.417-.691zM24 27.206l.691.383a1.781 1.781 0 011.131-.9l.012-.003a1.77 1.77 0 01.711-.074l-.007-.001c.216.017.411.092.575.208l-.003-.002a.894.894 0 01.32.457c.069.226.057.469-.034.686-.151.307-.342.57-.571.794.189.101.363.226.52.371a.983.983 0 01.234.394.758.758 0 01-.15.67l.001-.001a1.1 1.1 0 01-.632.438l-.008.002a.996.996 0 01-.709 0 .716.716 0 01-.41-.481l-.001-.005a.78.78 0 01.042-.576l-.002.005a2.76 2.76 0 01.509-.703l-1.377-.766a2.7 2.7 0 00-.034.817h-.349a2.73 2.73 0 01.119-1.014l-.005.019-.72-.4.149-.32zm.994.571l1.514.84c.194-.186.357-.403.479-.644l.006-.014a.723.723 0 000-.514.618.618 0 00-.396-.427l-.004-.001a1.123 1.123 0 00-.74.003l.008-.002a1.376 1.376 0 00-.888.735l-.004.008.023.017zm2.149 2.286a.509.509 0 00.045-.427l.001.004a.703.703 0 00-.183-.297 2.479 2.479 0 00-.46-.308l-.014-.006a2.999 2.999 0 00-.444.559l-.007.013a.566.566 0 00-.045.426l-.001-.004a.483.483 0 00.249.302l.003.001a.637.637 0 00.451 0 .68.68 0 00.381-.266l.001-.002.023.006zm-10.109 1.548l.08-4h.406l-.063 3.2 1.623-2.663h.2l1.52 2.709.057-3.183h.406l-.074 4h-.349l-1.68-2.989-1.777 2.931-.349-.006zm-1.988-4.182a1.943 1.943 0 01.516 1.991l.004-.014c-.1.367-.289.682-.543.931a1.91 1.91 0 01-.907.5l-.013.003a2.189 2.189 0 01-1.124-.039l.016.004a2.15 2.15 0 01-.961-.521l.001.001a1.918 1.918 0 01-.528-.889l-.003-.013a2.1 2.1 0 01.572-2.011c.242-.242.548-.421.889-.511l.014-.003a2.202 2.202 0 011.118.038l-.016-.004c.378.098.704.285.966.538l-.001-.001zm-1.949-.2a1.523 1.523 0 00-.737.411 1.652 1.652 0 00-.432.748l-.003.012c-.08.286-.08.589 0 .874.067.278.212.531.417.731.209.204.469.357.759.437l.012.003a1.796 1.796 0 00.898-.003l-.012.003a1.63 1.63 0 00.743-.411 1.68 1.68 0 00.432-.748l.003-.012a1.645 1.645 0 00-.003-.892l.003.012a1.613 1.613 0 00-.423-.731 1.718 1.718 0 00-.765-.432l-.012-.003a1.645 1.645 0 00-.892.003l.012-.003zm-4.326-2.658l.154 1.571c.098.042.194.09.286.143l.931.537.629-1.109.371.211-2 3.446-1.303-.749a1.826 1.826 0 01-.853-.903l-.005-.012a1.256 1.256 0 01.128-1.091l-.003.005c.133-.25.343-.451.6-.571a1.299 1.299 0 01.832-.061l-.009-.002-.166-1.68.406.263zm-.651 1.806a1.03 1.03 0 00-.735 1.293l-.002-.007c.134.296.366.536.657.68l.92.531 1-1.714-.92-.531a1.401 1.401 0 00-.923-.28h.004v.029zm-2.731-4.486l.257-.257 1.971 2.029-2.857 2.789-1.903-1.966.263-.257 1.617 1.663.977-.989-1.417-1.474.274-.263 1.446 1.486 1.063-1.034-1.691-1.726zm-4.246-2.245l.137-.789.269.04-.154.811.76-.28.091.251-.771.263.634.537-.183.206-.611-.571-.143.811-.274-.051.16-.811-.766.274-.086-.223.766-.269-.634-.531.189-.206.617.537z"/></symbol><symbol id="icon-mail" viewBox="0 0 32 32"><path fill="none" stroke="var(--color2, #9da4bd)" stroke-linejoin="round" stroke-linecap="round" stroke-width="1.333" d="M6.4 6.667h19.2C26.92 6.667 28 7.716 28 9v14c0 1.283-1.08 2.333-2.4 2.333H6.4C5.08 25.333 4 24.282 4 23V9c0-1.284 1.08-2.333 2.4-2.333z"/><path fill="none" stroke="var(--color2, #9da4bd)" stroke-linejoin="round" stroke-linecap="round" stroke-width="1.333" d="M26.667 9.333l-10.667 8-10.667-8"/></symbol><symbol id="icon-map-pin" viewBox="0 0 32 32"><path fill="none" stroke="var(--color2, #9da4bd)" stroke-linejoin="round" stroke-linecap="round" stroke-width="1.333" d="M26.667 13.819C26.667 21.454 16 28 16 28S5.333 21.453 5.333 13.819C5.333 8.396 10.109 4 16 4s10.667 4.396 10.667 9.819v0z"/><path fill="none" stroke="var(--color2, #9da4bd)" stroke-linejoin="round" stroke-linecap="round" stroke-width="1.333" d="M16 18.667a4 4 0 000-8v0a4 4 0 000 8v0z"/></symbol><symbol id="icon-phone" viewBox="0 0 32 32"><path fill="none" stroke="var(--color2, #9da4bd)" stroke-linejoin="round" stroke-linecap="round" stroke-width="1.333" d="M26.667 21.337v3.227A2.145 2.145 0 0124.32 26.7l.009.001c-3.481-.388-6.626-1.563-9.338-3.343l.081.05a21.09 21.09 0 01-6.386-6.353l-.05-.083a20.982 20.982 0 01-3.285-9.205l-.008-.095a2.145 2.145 0 012.136-2.338h3.239c1.079 0 1.972.797 2.123 1.834l.001.012c.136 1.029.387 2.04.751 3.013a2.144 2.144 0 01-.483 2.264l-1.363 1.361c1.555 2.7 3.736 4.881 6.353 6.392l.083.044 1.363-1.361a2.14 2.14 0 012.278-.477l-.015-.005c.973.363 1.984.613 3.013.751a2.148 2.148 0 011.847 2.125l-.001.056v-.003z"/></symbol><symbol id="icon-twitter" viewBox="0 0 32 32"><path d="M32 6.078c-1.1.493-2.376.857-3.713 1.028l-.068.007a6.556 6.556 0 002.873-3.579l.013-.046a12.88 12.88 0 01-4.076 1.573l-.084.014A6.558 6.558 0 0015.6 9.557v.004c0 .52.043 1.021.152 1.496-5.454-.266-10.28-2.88-13.522-6.861a6.524 6.524 0 00-.902 3.313v.001a6.57 6.57 0 002.914 5.451 6.453 6.453 0 01-2.994-.823l.033.017v.072a6.592 6.592 0 005.213 6.44l.043.008a6.403 6.403 0 01-1.662.215h-.061.003c-.419 0-.843-.024-1.242-.112.85 2.598 3.261 4.509 6.13 4.57a13.093 13.093 0 01-8.122 2.8H1.57h.001-.062c-.531 0-1.055-.034-1.569-.099l.061.006c2.826 1.846 6.287 2.944 10.004 2.944h.063-.003c12.072 0 18.672-10 18.672-18.669 0-.288-.01-.57-.024-.848a13.203 13.203 0 003.258-3.355l.03-.047z"/></symbol><symbol id="icon-plus" viewBox="0 0 9 9"><path d="M3.79 5.055H.68v-1.39h3.11V.476h1.405v3.187h3.117v1.39H5.196v3.173H3.79V5.055z" fill="#FF6C00"/></symbol><symbol id="icons-viber" viewBox="0 0 32 32">
<path d="M15.7 4c-1.9 0-6.6 0.2-9.1 2.6-1.8 1.7-2.5 4.3-2.6 7.4-0.2 4.9 0.9 8 2.7 9.6 0.4 0.3 1.4 1.1 3.3 1.7v2.5s0 1 0.6 1.2c0.1 0 0.2 0.1 0.3 0.1 0.6 0 1.1-0.7 1.8-1.4 0.6-0.7 1.1-1.2 1.4-1.7h2.2c1.9 0 6.6-0.2 9.1-2.6 1.8-1.8 2.5-4.4 2.5-7.7 0.1-0.5 0.1-1.1 0.1-1.7-0.1-3.7-1.2-6.2-2.7-7.6-0.6-0.5-3.2-2.4-8.8-2.4h-0.8zM15.5 5.9h0.9c5.3 0 7.3 1.7 7.5 1.9 1.2 1 1.9 3.2 2 6.1v0.4c0.1 0.6 0.1 1.1 0.1 1.4-0.1 3-0.7 5-1.9 6.3-2.1 1.9-6.5 2-7.7 2h-1.9l-1.6 1.8-1 1.1-0.2 0.3c-0.2 0.2-0.5 0.6-0.7 0.7v-4.5c-2-0.5-2.8-1.2-3-1.4-1.4-1.2-2.2-4.1-2-8v-1c0.2-2.4 0.8-4 1.8-5.1 2.1-1.9 6.5-2 7.7-2zM15.4 8.1c-0.5 0-0.5 0.7 0 0.7 3.7 0 6.9 2.5 6.9 7.2 0 0.5 0.7 0.5 0.7 0 0-5.1-3.4-8-7.6-7.9zM11.437 9.025c-0.031-0.004-0.067-0.006-0.104-0.006-0.201 0-0.386 0.068-0.534 0.182l0.002-0.002c-1 0.5-2.001 1.502-1.701 2.602 0 0 0.2 0.899 1.3 2.799 0.6 0.9 1.1 1.7 1.6 2.3 0.5 0.7 1.3 1.5 2.1 2.1 1.6 1.3 4.1 2.6 5.2 2.9 1 0.3 2.1-0.7 2.6-1.7 0.2-0.4 0.1-0.9-0.3-1.2-0.6-0.6-1.6-1.3-2.3-1.7-0.5-0.3-1.1-0.1-1.3 0.2l-0.5 0.6c-0.2 0.3-0.7 0.3-0.7 0.3-3.3-0.9-4.2-4.3-4.2-4.3s0-0.4 0.3-0.7l0.6-0.5c0.3-0.2 0.5-0.8 0.2-1.3-0.2-0.3-0.5-0.9-0.8-1.2-0.3-0.4-0.9-1.1-0.9-1.1-0.147-0.147-0.341-0.247-0.558-0.274l-0.005-0.001zM16.1 10.1c-0.5-0.1-0.6 0.7-0.1 0.7 2.8 0.2 4.4 2.1 4.3 4.5-0.1 0.5 0.7 0.5 0.7 0 0.1-2.8-1.7-5.1-4.9-5.2zM16.4 12c-0.5-0.1-0.5 0.7 0 0.7 1.2 0 1.8 0.7 1.8 1.9 0.1 0.5 0.8 0.5 0.8 0-0.1-1.6-1-2.6-2.6-2.6z" fill="#000000"></path>
</symbol><symbol id="sprite1" viewBox="0 0 52 32">
<path d="M39.778 0.328c0 0.016 0.016 0.033 0.036 0.033 0.016 0 0.023-0.016 0.013-0.033-0.010-0.020-0.026-0.033-0.036-0.033-0.007 0-0.013 0.013-0.013 0.033z"></path>
<path d="M39.582 0.512c0 0.026 0.016 0.039 0.033 0.030 0.020-0.013 0.026-0.036 0.016-0.052-0.030-0.046-0.049-0.036-0.049 0.023z"></path>
<path d="M40.724 0.876c0.023 0.010 0.053 0.007 0.062-0.003 0.013-0.010-0.007-0.020-0.043-0.016-0.036 0-0.046 0.010-0.020 0.020z"></path>
<path d="M41.731 1.050c0.010 0.016 0.026 0.033 0.036 0.033 0.007 0 0.013-0.016 0.013-0.033 0-0.020-0.016-0.033-0.036-0.033-0.016 0-0.023 0.013-0.013 0.033z"></path>
<path d="M39.434 1.155c-0.299 0.075-1.191 0.417-1.382 0.528-0.036 0.020-0.121 0.059-0.187 0.085s-0.121 0.059-0.121 0.075c0 0.013-0.039 0.026-0.085 0.026s-0.102 0.020-0.125 0.039c-0.023 0.023-0.128 0.115-0.23 0.207-0.299 0.259-0.42 0.384-0.466 0.499-0.026 0.056-0.059 0.112-0.079 0.125-0.016 0.010-0.033 0.046-0.033 0.082 0 0.033-0.023 0.066-0.049 0.079-0.026 0.010-0.049 0.043-0.049 0.075-0.003 0.033-0.046 0.095-0.098 0.141-0.098 0.079-0.098 0.082-0.098 0.414 0 0.256 0.013 0.348 0.049 0.387 0.026 0.026 0.049 0.082 0.049 0.128 0 0.053 0.059 0.138 0.184 0.256 0.098 0.098 0.197 0.21 0.213 0.249 0.023 0.062 0.053 0.075 0.161 0.075 0.095 0 0.131 0.013 0.131 0.049 0 0.026 0.016 0.049 0.033 0.049 0.033 0 0.164 0.118 0.164 0.151 0 0.023 0.243 0.243 0.272 0.243 0.013 0 0.023 0.020 0.023 0.046s0.023 0.053 0.049 0.066c0.026 0.010 0.049 0.053 0.049 0.098 0 0.043 0.023 0.085 0.049 0.098 0.033 0.013 0.049 0.062 0.049 0.161 0 0.089 0.020 0.161 0.049 0.187 0.030 0.023 0.049 0.095 0.049 0.167s0.016 0.128 0.033 0.128c0.020 0 0.043 0.023 0.056 0.053 0.010 0.030 0.131 0.204 0.269 0.391 0.138 0.184 0.292 0.4 0.345 0.476s0.282 0.286 0.509 0.469c0.318 0.253 0.423 0.354 0.453 0.446 0.053 0.148 0.030 0.256-0.082 0.377-0.066 0.069-0.072 0.085-0.023 0.056 0.115-0.062 0.181-0.125 0.181-0.171 0.003-0.056 0.115-0.194 0.158-0.194 0.049 0 0.079 0.171 0.053 0.282-0.013 0.053-0.059 0.128-0.102 0.167-0.039 0.039-0.075 0.112-0.075 0.158s-0.016 0.082-0.033 0.082c-0.020 0-0.069 0.033-0.108 0.075s-0.098 0.085-0.128 0.098c-0.033 0.010-0.059 0.036-0.059 0.056 0 0.016-0.020 0.033-0.046 0.033s-0.075 0.043-0.108 0.098c-0.030 0.053-0.082 0.098-0.112 0.098-0.082 0-0.371 0.135-0.4 0.184-0.016 0.026-0.082 0.046-0.154 0.046s-0.131 0.013-0.131 0.026c0 0.016-0.092 0.069-0.2 0.121-0.112 0.049-0.21 0.115-0.217 0.144s-0.046 0.069-0.082 0.085c-0.036 0.020-0.066 0.043-0.062 0.056 0 0.016 0.003 0.141 0.007 0.279 0.003 0.256 0.020 0.249 0.079-0.036 0.026-0.125 0.036-0.105 0.062 0.135 0.023 0.207 0.023 0.207-0.062 0.207-0.049 0-0.082 0.020-0.082 0.049s0.020 0.039 0.049 0.030c0.082-0.033 0.053 0.033-0.043 0.092-0.049 0.033-0.184 0.125-0.302 0.21-0.174 0.121-0.194 0.148-0.115 0.128 0.056-0.010 0.121-0.043 0.151-0.069 0.026-0.026 0.069-0.046 0.089-0.046 0.023 0 0.039-0.023 0.039-0.049 0-0.030 0.030-0.049 0.082-0.049 0.075 0 0.233-0.075 0.279-0.135 0.010-0.010 0.056-0.030 0.105-0.043 0.049-0.010 0.151-0.079 0.223-0.148 0.079-0.075 0.158-0.121 0.19-0.115 0.066 0.016 0.144-0.039 0.2-0.144 0.020-0.039 0.059-0.072 0.089-0.072 0.026 0 0.062-0.036 0.079-0.082s0.046-0.082 0.062-0.082c0.016 0 0.043-0.030 0.053-0.066 0.013-0.046 0.049-0.066 0.115-0.066s0.121-0.033 0.194-0.125c0.135-0.158 0.148-0.171 0.266-0.269 0.056-0.046 0.128-0.108 0.164-0.141 0.036-0.030 0.082-0.056 0.098-0.056 0.020 0 0.033-0.036 0.033-0.079 0-0.062 0.023-0.085 0.098-0.102 0.056-0.013 0.098-0.036 0.098-0.053s0.023-0.030 0.049-0.030c0.092 0 0.049 0.135-0.059 0.174-0.030 0.013-0.072 0.059-0.089 0.105s-0.046 0.082-0.066 0.082c-0.016 0-0.033 0.023-0.033 0.049s-0.020 0.049-0.046 0.049c-0.026 0-0.053 0.033-0.066 0.075-0.010 0.039-0.053 0.108-0.092 0.154-0.069 0.072-0.158 0.217-0.158 0.253 0 0.039 0.085-0.053 0.253-0.279 0.102-0.138 0.22-0.289 0.263-0.335s0.108-0.128 0.148-0.181c0.115-0.164 0.286-0.295 0.328-0.253 0.039 0.039 0.033 0.059-0.089 0.269-0.049 0.085 0 0.148 0.049 0.066 0.013-0.020 0.059-0.056 0.102-0.079 0.046-0.020 0.082-0.072 0.089-0.118s0.033-0.128 0.059-0.187c0.026-0.056 0.046-0.151 0.046-0.213 0-0.059 0.023-0.151 0.049-0.204 0.026-0.049 0.049-0.118 0.049-0.148s0.023-0.082 0.049-0.115c0.026-0.036 0.049-0.098 0.049-0.138s0.023-0.089 0.049-0.112c0.026-0.023 0.049-0.059 0.049-0.079 0-0.075 0.404-0.443 0.584-0.535 0.177-0.089 0.197-0.092 0.65-0.082 0.45 0.007 0.473 0.010 0.558 0.089 0.049 0.046 0.115 0.082 0.151 0.082 0.033 0 0.069 0.020 0.079 0.046s0.062 0.059 0.115 0.069c0.053 0.013 0.095 0.033 0.095 0.049s0.046 0.036 0.098 0.049c0.056 0.013 0.098 0.036 0.098 0.053s0.039 0.046 0.085 0.062c0.046 0.020 0.092 0.062 0.102 0.098s0.039 0.066 0.066 0.066c0.023 0 0.072 0.046 0.102 0.098 0.030 0.056 0.082 0.108 0.112 0.118 0.095 0.030 0.292 0.249 0.312 0.345 0.010 0.049 0.036 0.098 0.062 0.108s0.046 0.053 0.046 0.098c0 0.043 0.023 0.085 0.049 0.098 0.026 0.010 0.049 0.043 0.049 0.072s0.036 0.089 0.082 0.131c0.046 0.043 0.082 0.098 0.082 0.125s0.020 0.069 0.043 0.092c0.062 0.072 0.154 0.256 0.154 0.315 0 0.030 0.023 0.095 0.046 0.144 0.026 0.049 0.059 0.174 0.072 0.279s0.036 0.2 0.056 0.213c0.036 0.023 0.039 1.549 0.003 1.608-0.010 0.016-0.046 0-0.075-0.036-0.049-0.056-0.062-0.158-0.082-0.535-0.013-0.269-0.043-0.532-0.072-0.617-0.079-0.236-0.158-0.394-0.194-0.381-0.036 0.010-0.023 0.453 0.016 0.479 0.013 0.010 0.033 0.207 0.043 0.437 0.010 0.233 0.033 0.44 0.049 0.46 0.016 0.023 0.043 0.135 0.053 0.253 0.013 0.118 0.036 0.226 0.049 0.246 0.016 0.016 0.036 0.177 0.046 0.358 0.013 0.177 0.036 0.371 0.053 0.427 0.089 0.286 0.158 1.214 0.164 2.209 0.003 0.325 0.016 0.568 0.036 0.574 0.016 0.003 0.039 0.171 0.053 0.371 0.016 0.23 0.039 0.377 0.069 0.404 0.023 0.023 0.043 0.076 0.043 0.115s0.023 0.102 0.049 0.135c0.049 0.062 0.049 0.062 0.049-0.010 0-0.039-0.023-0.171-0.049-0.292-0.059-0.276-0.115-0.791-0.115-1.076 0-0.121-0.013-0.384-0.033-0.584-0.039-0.437-0.095-1.526-0.121-2.314-0.016-0.505-0.013-0.574 0.036-0.601 0.046-0.026 0.053-0.118 0.053-0.748 0-0.791-0.003-0.775 0.207-0.883 0.098-0.053 0.22-0.158 0.22-0.194 0-0.013 0.033-0.062 0.075-0.105 0.039-0.046 0.102-0.141 0.138-0.213s0.085-0.148 0.112-0.167c0.033-0.026 0.043-0.121 0.043-0.381-0.003-0.361-0.072-0.62-0.2-0.765-0.118-0.131-0.112-0.22 0.030-0.377 0.144-0.161 0.158-0.233 0.092-0.476-0.046-0.174-0.082-0.187-0.108-0.039-0.013 0.062-0.053 0.151-0.092 0.197-0.069 0.085-0.075 0.085-0.177 0.036-0.056-0.030-0.125-0.098-0.154-0.154-0.033-0.069-0.053-0.085-0.053-0.046 0 0.033-0.020 0.066-0.046 0.075s-0.056 0.053-0.066 0.095c-0.010 0.043-0.049 0.089-0.085 0.098-0.059 0.020-0.105-0.016-0.256-0.197-0.016-0.020-0.039-0.095-0.053-0.164-0.016-0.072-0.043-0.141-0.059-0.151-0.020-0.013-0.026-0.049-0.010-0.082 0.016-0.043 0.030-0.049 0.039-0.023 0.030 0.082 0.102 0.039 0.121-0.069 0.013-0.069 0.043-0.118 0.082-0.128 0.069-0.016 0.135 0.030 0.135 0.098 0 0.023 0.023 0.043 0.049 0.043s0.049 0.023 0.049 0.049c0 0.095 0.062 0.046 0.098-0.075 0.016-0.066 0.062-0.167 0.098-0.22 0.049-0.072 0.066-0.154 0.066-0.309 0-0.181-0.016-0.233-0.102-0.371-0.056-0.085-0.121-0.158-0.148-0.158s-0.046-0.010-0.046-0.026c0-0.026-0.233-0.161-0.256-0.144-0.010 0.003-0.013 0.125-0.010 0.266 0.007 0.236 0 0.263-0.069 0.312-0.082 0.059-0.21 0.069-0.24 0.020-0.010-0.020-0.056-0.033-0.098-0.033-0.039 0-0.082-0.023-0.095-0.049-0.010-0.026-0.033-0.049-0.053-0.049s-0.092-0.059-0.161-0.131c-0.069-0.072-0.151-0.131-0.181-0.131-0.079 0-0.184-0.059-0.184-0.105 0-0.020-0.026-0.066-0.056-0.102-0.053-0.056-0.059-0.148-0.049-1.047 0.007-0.824 0-1.004-0.043-1.086-0.026-0.056-0.049-0.148-0.049-0.207s-0.016-0.148-0.036-0.2c-0.020-0.049-0.049-0.164-0.066-0.253-0.016-0.092-0.043-0.171-0.056-0.18-0.016-0.013-0.043-0.072-0.062-0.135-0.030-0.098-0.036-0.102-0.039-0.033-0.003 0.085 0.066 0.308 0.105 0.348 0.013 0.013 0.023 0.066 0.023 0.118 0 0.049 0.016 0.092 0.033 0.092 0.059 0 0.036 0.128-0.030 0.164-0.098 0.053-0.148 0.039-0.253-0.059-0.053-0.053-0.154-0.128-0.226-0.171-0.125-0.075-0.223-0.154-0.4-0.322-0.043-0.039-0.098-0.072-0.121-0.072s-0.092-0.046-0.151-0.098c-0.059-0.056-0.138-0.098-0.174-0.098-0.033 0-0.102-0.026-0.148-0.062-0.049-0.033-0.21-0.121-0.354-0.197-0.253-0.131-0.341-0.194-0.594-0.43-0.059-0.052-0.112-0.098-0.121-0.098-0.007 0-0.075-0.059-0.151-0.131s-0.174-0.141-0.217-0.151c-0.043-0.010-0.079-0.039-0.079-0.066s-0.033-0.046-0.079-0.046c-0.043 0-0.131-0.023-0.194-0.049-0.138-0.056-0.709-0.062-0.926-0.010zM40.697 1.575c0 0.020 0.026 0.046 0.056 0.056 0.102 0.039 0.174 0.121 0.174 0.197 0 0.039 0.016 0.082 0.036 0.095 0.026 0.013 0.026 0.030 0 0.056-0.095 0.095 0.030 0.325 0.164 0.312 0.053-0.007 0.079 0.010 0.089 0.053 0.010 0.053 0 0.059-0.075 0.039-0.102-0.026-0.213 0.062-0.213 0.171 0 0.033-0.043 0.125-0.098 0.197-0.053 0.075-0.098 0.151-0.098 0.171 0 0.016-0.020 0.033-0.046 0.033s-0.053 0.023-0.066 0.049c-0.010 0.030-0.059 0.049-0.118 0.049-0.066 0-0.098 0.016-0.098 0.049 0 0.030-0.030 0.049-0.082 0.049-0.046 0-0.082-0.016-0.082-0.033 0-0.020 0.030-0.033 0.062-0.033 0.036 0 0.128-0.066 0.207-0.148 0.079-0.079 0.161-0.148 0.184-0.148 0.020 0 0.039-0.030 0.039-0.066s0.013-0.066 0.030-0.066c0.016 0 0.039-0.059 0.053-0.131 0.013-0.082 0.039-0.131 0.069-0.131 0.026 0 0.046-0.023 0.046-0.049s-0.023-0.049-0.049-0.049c-0.039 0-0.049-0.043-0.049-0.194 0-0.141-0.013-0.197-0.049-0.213-0.026-0.010-0.049-0.052-0.049-0.098 0-0.043-0.023-0.085-0.049-0.098-0.056-0.020-0.069-0.151-0.016-0.151 0.020 0 0.033 0.016 0.033 0.033zM38.367 1.818c0 0.026-0.033 0.059-0.072 0.072-0.072 0.020-0.354 0.203-0.387 0.249-0.033 0.043-0.295 0.069-0.295 0.030 0-0.020 0.033-0.036 0.075-0.036 0.138 0 0.22-0.039 0.22-0.102 0-0.043 0.030-0.069 0.095-0.082 0.056-0.013 0.102-0.046 0.112-0.079 0.010-0.039 0.056-0.066 0.125-0.075 0.062-0.007 0.115-0.016 0.121-0.016 0.003-0.003 0.007 0.013 0.007 0.039zM40.54 2.087c0.013 0.089 0.013 0.24 0.003 0.332-0.013 0.148-0.039 0.194-0.148 0.305-0.125 0.125-0.374 0.263-0.473 0.263-0.026 0-0.075 0.016-0.112 0.039-0.049 0.033-0.105 0.033-0.256 0-0.105-0.023-0.253-0.039-0.328-0.039-0.095 0-0.148-0.016-0.158-0.049-0.013-0.026-0.049-0.049-0.085-0.049s-0.105-0.020-0.151-0.046c-0.158-0.085-0.368-0.151-0.476-0.151-0.056 0-0.138-0.010-0.177-0.020-0.072-0.020-0.072-0.023 0.033-0.098 0.056-0.043 0.158-0.102 0.22-0.128s0.158-0.072 0.207-0.098c0.053-0.026 0.118-0.049 0.151-0.049 0.030 0 0.069-0.013 0.089-0.030 0.049-0.049 0.689-0.204 1.080-0.266 0.108-0.016 0.263-0.043 0.345-0.059s0.164-0.026 0.181-0.023c0.020 0.003 0.043 0.079 0.056 0.167zM41.387 2.199c0 0.108-0.010 0.115-0.102 0.066-0.072-0.039-0.082-0.118-0.020-0.141 0.092-0.039 0.121-0.020 0.121 0.075zM41.419 2.481c0 0.056-0.020 0.092-0.066 0.102-0.036 0.010-0.066 0.030-0.066 0.046s-0.020 0.030-0.046 0.030c-0.039 0-0.039-0.020 0.003-0.131 0.062-0.158 0.174-0.187 0.174-0.046zM41.968 2.842c0.194 0.098 0.368 0.194 0.387 0.213 0.016 0.016 0.053 0.030 0.082 0.030 0.026 0 0.112 0.053 0.19 0.118 0.108 0.092 0.135 0.138 0.121 0.19-0.016 0.049-0.013 0.056 0.010 0.023 0.049-0.066 0.135-0.023 0.368 0.194 0.118 0.108 0.259 0.23 0.312 0.266 0.056 0.039 0.144 0.125 0.197 0.187l0.098 0.115v0.463c0 0.482-0.069 1.188-0.125 1.26-0.039 0.053-0.207 0.128-0.345 0.154-0.121 0.026-0.2-0.039-0.203-0.164 0-0.039-0.016-0.085-0.033-0.102-0.020-0.020-0.046-0.138-0.062-0.266-0.016-0.125-0.046-0.259-0.066-0.299-0.020-0.036-0.036-0.105-0.036-0.148 0-0.046-0.023-0.125-0.049-0.174-0.026-0.053-0.049-0.121-0.049-0.154 0-0.030-0.013-0.056-0.030-0.056-0.020 0-0.043-0.066-0.056-0.148-0.010-0.082-0.033-0.148-0.049-0.148s-0.030-0.026-0.030-0.059c0-0.033-0.053-0.161-0.115-0.282-0.062-0.125-0.115-0.243-0.115-0.263s-0.036-0.075-0.082-0.125c-0.046-0.049-0.082-0.105-0.082-0.125 0-0.036-0.213-0.249-0.345-0.338-0.046-0.036-0.098-0.095-0.115-0.131-0.016-0.039-0.030-0.053-0.030-0.033-0.003 0.066-0.085 0.049-0.161-0.033-0.062-0.066-0.066-0.085-0.030-0.213 0.020-0.075 0.046-0.138 0.059-0.138s0.184 0.082 0.381 0.184zM37.95 2.747c-0.023 0.007-0.043 0.030-0.043 0.046s-0.039 0.072-0.089 0.125c-0.105 0.105-0.167 0.194-0.194 0.272-0.013 0.033-0.036 0.059-0.053 0.059s-0.046 0.043-0.062 0.098c-0.020 0.053-0.049 0.098-0.066 0.098s-0.030 0.030-0.030 0.062c0 0.036-0.023 0.085-0.049 0.115-0.026 0.026-0.049 0.062-0.049 0.079 0 0.020-0.023 0.039-0.049 0.053-0.026 0.010-0.049 0.039-0.049 0.062s-0.039 0.066-0.089 0.092c-0.049 0.026-0.125 0.079-0.167 0.118-0.066 0.059-0.089 0.066-0.141 0.033-0.079-0.049-0.079-0.059 0.003-0.148 0.072-0.075 0.085-0.138 0.033-0.138-0.016 0-0.033 0.023-0.033 0.049s-0.023 0.049-0.049 0.049c-0.026 0-0.049 0.013-0.049 0.033 0 0.066-0.066 0.030-0.085-0.046-0.036-0.154 0.164-0.45 0.391-0.565 0.049-0.026 0.089-0.062 0.089-0.079 0-0.020 0.023-0.033 0.049-0.033s0.049-0.013 0.049-0.030c0-0.016 0.030-0.039 0.062-0.053 0.036-0.010 0.112-0.062 0.174-0.115 0.059-0.053 0.161-0.121 0.223-0.154s0.121-0.069 0.125-0.085c0.007-0.013 0.053-0.023 0.098-0.020 0.049 0 0.069 0.010 0.049 0.020zM37.973 3.2c0 0.046-0.013 0.082-0.033 0.082-0.016 0-0.033-0.036-0.033-0.082s0.016-0.082 0.033-0.082c0.020 0 0.033 0.036 0.033 0.082zM37.776 3.479c0 0.036-0.013 0.066-0.033 0.066-0.016 0-0.033-0.030-0.033-0.066s0.016-0.066 0.033-0.066c0.020 0 0.033 0.030 0.033 0.066zM38.784 3.482c0.030 0.030-0.010 0.069-0.148 0.158-0.105 0.066-0.243 0.148-0.312 0.18-0.066 0.036-0.121 0.075-0.121 0.092 0 0.013-0.023 0.026-0.049 0.026-0.030 0-0.049-0.030-0.049-0.082 0-0.046 0.013-0.082 0.030-0.082s0.039-0.039 0.049-0.085c0.013-0.049 0.049-0.121 0.079-0.164 0.049-0.066 0.085-0.075 0.272-0.079 0.118 0 0.23 0.016 0.249 0.036zM41.311 3.614c0.197 0.089 0.463 0.368 0.489 0.509 0.010 0.059 0.039 0.115 0.066 0.125s0.046 0.039 0.046 0.069c0 0.026 0.013 0.075 0.030 0.108 0.075 0.138 0.135 0.282 0.135 0.332 0.003 0.030 0.030 0.112 0.066 0.184s0.062 0.158 0.066 0.187c0 0.030 0.013 0.062 0.030 0.072 0.013 0.010 0.036 0.131 0.043 0.266 0.010 0.138 0.033 0.266 0.056 0.289 0.020 0.020 0.036 0.079 0.036 0.131s0.020 0.141 0.046 0.197c0.026 0.059 0.062 0.181 0.085 0.272 0.033 0.151 0.030 0.177-0.039 0.312-0.069 0.131-0.089 0.144-0.207 0.154-0.072 0.007-0.144 0.026-0.161 0.043-0.020 0.016-0.056 0.030-0.082 0.030-0.075 0-0.459 0.197-0.555 0.286-0.046 0.043-0.092 0.075-0.108 0.075-0.013 0-0.033 0.030-0.046 0.062-0.010 0.033-0.056 0.072-0.098 0.082-0.059 0.016-0.082 0.043-0.082 0.098 0 0.046-0.020 0.102-0.043 0.125s-0.053 0.069-0.066 0.098c-0.010 0.033-0.036 0.059-0.056 0.059-0.016 0-0.033 0.053-0.033 0.115 0 0.223-0.164 0.44-0.331 0.443-0.148 0-0.453-0.187-0.456-0.279 0-0.020-0.039-0.075-0.089-0.131-0.089-0.092-0.144-0.174-0.194-0.279-0.033-0.062-0.542-0.558-0.578-0.558-0.013 0-0.026-0.020-0.026-0.043s-0.033-0.056-0.072-0.072c-0.043-0.020-0.089-0.062-0.105-0.102-0.016-0.036-0.059-0.082-0.095-0.098s-0.082-0.059-0.102-0.095c-0.020-0.036-0.056-0.079-0.075-0.092-0.023-0.013-0.043-0.039-0.043-0.059 0-0.016-0.043-0.092-0.098-0.167-0.053-0.072-0.098-0.167-0.098-0.21s-0.013-0.085-0.033-0.095c-0.016-0.010-0.033-0.069-0.033-0.131 0-0.102 0.010-0.112 0.131-0.131 0.072-0.013 0.131-0.036 0.131-0.053s-0.013-0.030-0.026-0.030c-0.016 0-0.046-0.036-0.066-0.079-0.030-0.062-0.026-0.089 0.013-0.121 0.036-0.030 0.079-0.026 0.2 0.020 0.108 0.043 0.158 0.049 0.167 0.023 0.007-0.023 0.069-0.039 0.138-0.039 0.141 0 0.197 0.059 0.197 0.21 0 0.046 0.016 0.085 0.033 0.085 0.036 0 0.046-0.161 0.013-0.243-0.010-0.030-0.033-0.043-0.049-0.033s-0.030-0.016-0.030-0.056c0-0.092-0.121-0.226-0.2-0.226-0.033 0-0.072-0.020-0.085-0.046s-0.102-0.059-0.19-0.069c-0.151-0.020-0.174-0.013-0.276 0.079-0.171 0.154-0.309 0.131-0.44-0.069-0.069-0.108-0.072-0.187-0.010-0.21 0.026-0.010 0.043-0.066 0.039-0.144-0.003-0.131 0.082-0.263 0.164-0.263 0.026 0 0.138-0.056 0.253-0.128 0.115-0.069 0.243-0.138 0.289-0.151 0.043-0.013 0.102-0.043 0.128-0.066 0.026-0.020 0.144-0.069 0.263-0.108s0.315-0.105 0.443-0.151c0.125-0.046 0.371-0.105 0.542-0.135s0.338-0.066 0.368-0.085c0.033-0.016 0.079-0.030 0.105-0.030s0.062-0.020 0.075-0.046c0.056-0.098 0.292-0.108 0.492-0.016zM37.678 3.659c0 0.046-0.013 0.082-0.033 0.082-0.016 0-0.033-0.036-0.033-0.082s0.016-0.082 0.033-0.082c0.020 0 0.033 0.036 0.033 0.082zM37.973 3.676c0 0.036-0.013 0.066-0.033 0.066-0.016 0-0.033-0.030-0.033-0.066s0.016-0.066 0.033-0.066c0.020 0 0.033 0.030 0.033 0.066zM37.507 3.863c-0.013 0.128-0.092 0.138-0.092 0.013 0-0.069 0.016-0.102 0.053-0.102s0.046 0.026 0.039 0.089zM37.79 4.063c-0.013 0.039-0.039 0.072-0.062 0.072s-0.049 0.023-0.062 0.049c-0.020 0.056-0.118 0.069-0.118 0.016 0-0.020 0.010-0.033 0.026-0.033 0.013 0 0.059-0.053 0.102-0.115 0.082-0.121 0.148-0.118 0.115 0.010zM37.12 4.28c0 0.010-0.013 0.026-0.033 0.036-0.016 0.010-0.033 0.003-0.033-0.013 0-0.020 0.016-0.036 0.033-0.036 0.020 0 0.033 0.007 0.033 0.013zM45.305 6.157c0.056 0.144-0.007 0.341-0.108 0.341-0.118 0-0.121-0.204-0.007-0.332 0.066-0.072 0.089-0.075 0.115-0.010zM43.996 6.338c0.082 0.075 0.148 0.148 0.148 0.164 0 0.056 0.158 0.194 0.226 0.194 0.062 0 0.069-0.016 0.062-0.135-0.007-0.089 0.007-0.141 0.033-0.151 0.023-0.010 0.039 0.013 0.039 0.049 0 0.039 0.026 0.092 0.056 0.125 0.039 0.036 0.062 0.125 0.069 0.263 0.010 0.115 0.026 0.21 0.039 0.21 0.016 0 0.039 0.049 0.049 0.105 0.013 0.059 0.036 0.121 0.049 0.141 0.013 0.016 0.036 0.082 0.049 0.138 0.010 0.059 0.036 0.108 0.053 0.108s0.030 0.043 0.030 0.098c0 0.112-0.023 0.125-0.082 0.043-0.043-0.059-0.115-0.033-0.115 0.043 0 0.026-0.033 0.046-0.082 0.046s-0.082-0.020-0.082-0.046c0-0.026-0.023-0.053-0.049-0.066-0.026-0.010-0.049-0.046-0.049-0.079 0-0.036-0.023-0.082-0.049-0.105s-0.049-0.075-0.049-0.118c0-0.079-0.125-0.348-0.171-0.368-0.013-0.007-0.026-0.039-0.026-0.072s-0.020-0.082-0.039-0.105c-0.049-0.056-0.112-0.148-0.164-0.249-0.020-0.043-0.066-0.072-0.108-0.072-0.089 0-0.125-0.102-0.082-0.217 0.043-0.108 0.075-0.098 0.246 0.056zM43.422 7.076c0 0.053-0.135 0.016-0.187-0.049-0.023-0.030-0.043-0.098-0.043-0.151v-0.098l0.115 0.128c0.062 0.072 0.115 0.148 0.115 0.171zM43.773 6.876c0.026 0.030 0.043 0.062 0.033 0.072-0.020 0.016-0.121-0.069-0.121-0.102s0.036-0.020 0.089 0.030zM43.914 7.024c0 0.016-0.016 0.033-0.036 0.033-0.016 0-0.023-0.016-0.013-0.033 0.010-0.020 0.026-0.033 0.036-0.033 0.007 0 0.013 0.013 0.013 0.033zM44.111 7.388c0 0.043-0.023 0.062-0.079 0.062-0.062 0-0.072-0.013-0.062-0.079 0.013-0.056 0.033-0.072 0.079-0.062 0.033 0.010 0.062 0.046 0.062 0.079zM44.311 7.683c0.072 0.075 0.128 0.148 0.128 0.164s0.013 0.030 0.033 0.030c0.016 0 0.039 0.036 0.053 0.082 0.023 0.095 0.112 0.112 0.112 0.020 0-0.036 0.016-0.075 0.033-0.085 0.020-0.013 0.033 0.033 0.033 0.115 0 0.108 0.013 0.141 0.066 0.154 0.036 0.010 0.066 0.030 0.066 0.046s0.053 0.030 0.115 0.030c0.092 0 0.144 0.033 0.289 0.171 0.098 0.095 0.203 0.213 0.236 0.263 0.030 0.049 0.069 0.082 0.085 0.072 0.036-0.020 0.039-0.21 0.003-0.21s-0.138-0.181-0.138-0.243c0-0.079 0.171-0.066 0.272 0.023 0.049 0.039 0.089 0.092 0.089 0.112s0.020 0.059 0.046 0.085c0.026 0.023 0.062 0.098 0.079 0.161 0.026 0.098 0.020 0.138-0.030 0.223-0.049 0.079-0.056 0.115-0.030 0.148 0.023 0.026 0.023 0.053 0.007 0.062-0.020 0.010-0.043 0.072-0.053 0.135-0.013 0.062-0.033 0.115-0.049 0.115-0.043 0-0.266 0.213-0.266 0.256 0 0.020-0.036 0.039-0.082 0.039-0.059 0-0.082-0.016-0.082-0.062 0-0.036 0.020-0.069 0.043-0.079 0.072-0.023 0.033-0.394-0.059-0.568-0.046-0.085-0.082-0.171-0.082-0.194 0-0.020-0.056-0.098-0.125-0.174-0.092-0.098-0.144-0.131-0.194-0.118-0.053 0.016-0.069 0-0.085-0.075-0.013-0.059-0.049-0.112-0.102-0.135-0.046-0.020-0.085-0.053-0.085-0.072 0-0.016-0.020-0.033-0.043-0.033-0.056 0-0.351-0.276-0.351-0.325 0-0.020-0.020-0.036-0.043-0.036-0.043 0-0.128-0.181-0.095-0.21 0.039-0.039 0.085-0.013 0.207 0.115zM45.604 7.713c-0.010 0.016-0.033 0.033-0.053 0.033-0.016 0-0.030-0.016-0.030-0.033 0-0.020 0.023-0.033 0.053-0.033 0.026 0 0.039 0.013 0.030 0.033zM45.391 7.811c0 0.016-0.013 0.033-0.033 0.033-0.016 0-0.033-0.016-0.033-0.033 0-0.020 0.016-0.033 0.033-0.033 0.020 0 0.033 0.013 0.033 0.033zM45.020 8.665c0.010 0.053 0.030 0.098 0.046 0.098s0.030 0.020 0.030 0.046c0 0.026 0.020 0.069 0.043 0.092 0.056 0.053 0.089 0.243 0.066 0.364-0.026 0.135-0.066 0.105-0.085-0.069-0.020-0.158-0.092-0.341-0.177-0.44-0.030-0.033-0.039-0.082-0.026-0.121 0.030-0.098 0.082-0.085 0.105 0.030zM39.913 8.72c-0.016 0.033-0.066 0.131-0.108 0.223-0.098 0.21-0.315 0.476-0.391 0.476-0.039 0-0.161 0.125-0.161 0.164 0 0.016-0.013 0.033-0.033 0.033-0.016 0-0.033 0.023-0.033 0.049s-0.023 0.049-0.049 0.049c-0.026 0-0.049 0.020-0.049 0.046 0 0.062-0.148 0.154-0.21 0.131-0.066-0.026-0.095-0.115-0.053-0.158 0.016-0.016 0.033-0.069 0.033-0.115 0-0.089 0.085-0.2 0.154-0.2 0.023 0 0.043-0.013 0.043-0.033 0-0.059 0.213-0.253 0.305-0.272 0.049-0.013 0.089-0.039 0.089-0.056 0-0.020 0.023-0.033 0.049-0.033s0.049-0.023 0.049-0.049c0-0.026 0.016-0.049 0.033-0.049 0.049 0 0.164-0.125 0.164-0.174 0-0.066 0.033-0.089 0.121-0.089 0.062 0 0.069 0.010 0.046 0.056zM38.666 9.784c-0.013 0.269-0.056 0.354-0.226 0.437-0.085 0.043-0.118 0.046-0.171 0.013-0.066-0.043-0.092-0.125-0.039-0.125 0.013 0 0.066-0.085 0.112-0.19 0.049-0.102 0.125-0.217 0.171-0.249 0.049-0.033 0.085-0.082 0.085-0.108s0.020-0.043 0.043-0.033c0.026 0.010 0.036 0.082 0.026 0.256z"></path>
<path d="M43.067 4.851c-0.053 0.033-0.105 0.217-0.105 0.361 0 0.161 0.131 0.282 0.272 0.253 0.177-0.039 0.253-0.135 0.253-0.318 0-0.131-0.016-0.174-0.085-0.24-0.089-0.082-0.249-0.108-0.335-0.056z"></path>
<path d="M40.642 3.932c-0.059 0.030-0.108 0.066-0.108 0.079 0 0.046 0.125 0.026 0.177-0.023 0.026-0.026 0.062-0.049 0.082-0.049s0.036-0.016 0.036-0.033c0-0.046-0.066-0.036-0.187 0.026z"></path>
<path d="M40.356 4.122c-0.030 0.026-0.053 0.062-0.053 0.075s-0.066 0.059-0.148 0.098c-0.151 0.075-0.233 0.174-0.197 0.236 0.013 0.016 0.053 0.023 0.092 0.010 0.079-0.023 0.286-0.226 0.286-0.276 0-0.020 0.023-0.033 0.049-0.033 0.039 0 0.115-0.092 0.115-0.144 0-0.039-0.095-0.016-0.144 0.033z"></path>
<path d="M41.026 4.332c-0.167 0.030-0.381 0.115-0.41 0.164-0.010 0.016-0.049 0.033-0.085 0.033s-0.118 0.056-0.177 0.121c-0.095 0.105-0.115 0.148-0.115 0.279 0 0.158 0.043 0.233 0.079 0.138 0.010-0.030 0.020-0.092 0.020-0.144 0-0.066 0.020-0.095 0.069-0.108 0.128-0.033 0.282 0.013 0.354 0.112 0.089 0.118 0.207 0.125 0.279 0.013 0.085-0.131 0.066-0.177-0.079-0.2-0.072-0.013-0.131-0.030-0.131-0.043 0.003-0.043 0.158-0.167 0.21-0.167 0.030 0 0.069 0.036 0.085 0.082 0.036 0.098 0.112 0.082 0.22-0.046 0.092-0.105 0.095-0.187 0.013-0.233-0.072-0.036-0.118-0.036-0.331 0z"></path>
<path d="M38.269 4.861c0 0.098 0.066 0.138 0.243 0.154 0.197 0.016 0.223-0.010 0.112-0.105-0.092-0.079-0.354-0.115-0.354-0.049z"></path>
<path d="M40.172 5.941c0 0.016 0.016 0.039 0.033 0.049 0.020 0.010 0.033 0.085 0.033 0.161 0 0.115-0.013 0.148-0.066 0.161-0.079 0.020-0.089 0.148-0.013 0.177 0.033 0.013 0.095-0.030 0.181-0.112 0.112-0.112 0.125-0.144 0.108-0.233-0.020-0.098-0.089-0.167-0.217-0.213-0.033-0.010-0.059-0.007-0.059 0.010z"></path>
<path d="M39.47 6.147c-0.033 0.249 0 0.407 0.089 0.43 0.039 0.010 0.085 0.003 0.105-0.016s0.007-0.039-0.043-0.049c-0.066-0.020-0.072-0.043-0.072-0.24 0-0.289-0.049-0.364-0.079-0.125z"></path>
<path d="M41.183 6.416c-0.033 0.043-0.059 0.085-0.059 0.095 0 0.013-0.053 0.069-0.115 0.128-0.108 0.102-0.128 0.108-0.305 0.095-0.167-0.013-0.217 0-0.384 0.089-0.105 0.056-0.22 0.102-0.256 0.102s-0.121 0.016-0.19 0.039c-0.102 0.030-0.128 0.053-0.128 0.115 0 0.039 0.010 0.075 0.026 0.075 0.036 0 0.269 0.217 0.269 0.253 0 0.016 0.056 0.085 0.121 0.151 0.105 0.108 0.138 0.121 0.286 0.121 0.181-0.003 0.397-0.102 0.459-0.21 0.020-0.033 0.069-0.098 0.105-0.141 0.069-0.075 0.148-0.276 0.194-0.496 0.013-0.059 0.043-0.148 0.069-0.197 0.049-0.095 0.056-0.167 0.026-0.249-0.026-0.072-0.053-0.066-0.118 0.030zM40.894 6.942c0 0.026-0.013 0.049-0.033 0.049-0.016 0-0.033 0.020-0.033 0.043 0 0.039-0.112 0.154-0.151 0.154-0.010 0-0.039 0.023-0.066 0.049-0.030 0.026-0.079 0.049-0.115 0.049-0.033 0-0.062 0.013-0.062 0.033 0 0.049-0.118 0.039-0.164-0.013-0.069-0.085-0.026-0.197 0.082-0.217 0.115-0.026 0.253-0.098 0.289-0.158 0.039-0.059 0.253-0.053 0.253 0.010z"></path>
<path d="M37.957 1.185c-0.033 0.049 0.010 0.082 0.053 0.039 0.023-0.023 0.023-0.043 0.003-0.056-0.020-0.010-0.046-0.003-0.056 0.016z"></path>
<path d="M38.049 8.783c-0.010 0.030-0.003 0.062 0.016 0.075 0.056 0.033 0.007 0.167-0.059 0.167-0.046 0-0.069 0.043-0.098 0.154-0.043 0.187-0.046 0.2-0.039 0.305 0.007 0.072 0.013 0.069 0.075-0.049 0.066-0.121 0.138-0.2 0.263-0.292 0.030-0.020 0.062-0.069 0.075-0.112 0.020-0.062 0.013-0.082-0.046-0.095-0.056-0.016-0.069-0.039-0.059-0.112 0.013-0.075 0.003-0.095-0.046-0.095-0.033 0-0.069 0.023-0.082 0.053z"></path>
<path d="M40.484 9.19c-0.010 0.016-0.003 0.033 0.013 0.033 0.020 0 0.036-0.016 0.036-0.033 0-0.020-0.007-0.033-0.013-0.033-0.010 0-0.026 0.013-0.036 0.033z"></path>
<path d="M38.548 10.834c-0.036 0.013-0.102 0.026-0.144 0.026-0.066 0.003-0.233 0.135-0.233 0.184s-0.125 0.148-0.184 0.148c-0.039 0-0.079 0.023-0.092 0.049-0.010 0.026-0.056 0.049-0.102 0.049s-0.082 0.013-0.082 0.030c0 0.016-0.043 0.039-0.098 0.053-0.053 0.013-0.098 0.033-0.098 0.049 0 0.013-0.039 0.036-0.085 0.046-0.046 0.013-0.118 0.059-0.158 0.102-0.043 0.046-0.089 0.082-0.105 0.082-0.039 0-0.276 0.23-0.276 0.266 0 0.102 0.289-0.069 0.331-0.197 0.010-0.023 0.075-0.053 0.144-0.066 0.102-0.016 0.135-0.036 0.141-0.092 0.010-0.056 0.039-0.079 0.131-0.095 0.066-0.010 0.138-0.039 0.154-0.062 0.020-0.020 0.089-0.059 0.158-0.079 0.069-0.023 0.135-0.062 0.144-0.089s0.056-0.046 0.105-0.046c0.089 0 0.184-0.053 0.358-0.204 0.144-0.121 0.138-0.213-0.010-0.154z"></path>
<path d="M31.068 11.241c-0.010 0.026-0.043 0.049-0.076 0.049-0.066 0-0.207 0.151-0.207 0.226 0 0.030-0.023 0.082-0.049 0.115-0.033 0.043-0.049 0.144-0.049 0.309 0 0.223 0.007 0.249 0.095 0.335 0.049 0.053 0.102 0.141 0.115 0.2 0.056 0.286 0.010 0.325-0.4 0.328-0.607 0.003-0.968 0.069-1.116 0.204-0.036 0.033-0.089 0.135-0.118 0.23-0.046 0.151-0.049 0.19-0.010 0.318 0.056 0.174 0.171 0.466 0.236 0.607 0.026 0.053 0.062 0.161 0.082 0.233 0.020 0.075 0.056 0.154 0.082 0.177s0.066 0.098 0.082 0.167c0.026 0.089 0.072 0.151 0.167 0.217 0.076 0.049 0.194 0.141 0.263 0.204 0.121 0.102 0.138 0.108 0.302 0.089 0.092-0.013 0.414-0.023 0.709-0.023 0.512 0 0.555-0.007 0.798-0.095 0.253-0.092 0.263-0.092 0.443-0.046 0.148 0.039 0.223 0.039 0.368 0.010 0.102-0.020 0.22-0.043 0.259-0.049 0.062-0.013 0.072-0.023 0.039-0.062-0.026-0.033-0.033-0.098-0.020-0.187 0.013-0.079 0.030-0.302 0.039-0.496 0.016-0.325 0.026-0.358 0.089-0.384 0.049-0.020 0.056-0.030 0.020-0.030-0.026-0.003-0.085-0.039-0.125-0.082-0.053-0.056-0.125-0.082-0.269-0.098-0.19-0.023-0.203-0.033-0.433-0.259-0.335-0.335-0.453-0.476-0.564-0.693-0.052-0.105-0.135-0.23-0.177-0.279-0.046-0.046-0.144-0.171-0.223-0.279l-0.141-0.19v-0.335c0-0.41-0.016-0.479-0.115-0.479-0.043 0-0.082 0.023-0.095 0.049zM31.137 12.61c-0.010 0.026-0.020 0.016-0.020-0.020-0.003-0.036 0.007-0.056 0.016-0.043 0.010 0.010 0.013 0.039 0.003 0.062zM31.934 13.145c0 0.046-0.013 0.082-0.033 0.082-0.016 0-0.033-0.036-0.033-0.082s0.016-0.082 0.033-0.082c0.020 0 0.033 0.036 0.033 0.082zM32.64 14.933c-0.010 0.016-0.033 0.033-0.053 0.033-0.016 0-0.030-0.016-0.030-0.033 0-0.020 0.023-0.033 0.053-0.033 0.026 0 0.039 0.013 0.030 0.033z"></path>
<path d="M36.651 11.543c-0.075 0.141-0.069 0.167 0.013 0.062 0.036-0.046 0.062-0.105 0.053-0.128-0.007-0.020-0.036 0.007-0.066 0.066z"></path>
<path d="M41.282 11.641c-0.062 0.213-0.020 0.371 0.125 0.486 0.062 0.049 0.112 0.108 0.112 0.135s0.013 0.046 0.033 0.046c0.016 0 0.039 0.036 0.053 0.082 0.010 0.046 0.033 0.082 0.049 0.082s0.030 0.039 0.030 0.085c0 0.046 0.020 0.115 0.039 0.154 0.039 0.069 0.066 0.197 0.164 0.768 0.020 0.131 0.049 0.24 0.066 0.24 0.013 0 0.026 0.033 0.026 0.072 0 0.141 0.036 0.21 0.131 0.246 0.079 0.030 0.092 0.056 0.105 0.194 0.013 0.167-0.010 0.21-0.125 0.21-0.036 0-0.164 0.066-0.286 0.148s-0.233 0.148-0.249 0.148c-0.016 0-0.039 0.023-0.049 0.053-0.010 0.026-0.033 0.043-0.049 0.033s-0.036 0.013-0.049 0.056c-0.016 0.062-0.026 0.066-0.056 0.023s-0.033-0.043-0.020 0.007c0.020 0.056-0.095 0.213-0.144 0.2-0.016-0.007-0.030 0.010-0.030 0.033 0 0.020-0.043 0.085-0.095 0.141-0.108 0.115-0.312 0.433-0.466 0.719-0.056 0.108-0.118 0.207-0.138 0.217-0.016 0.013-0.023 0.036-0.010 0.056 0.010 0.016-0.010 0.066-0.043 0.108s-0.072 0.128-0.082 0.184c-0.023 0.105-0.069 0.141-0.092 0.076-0.007-0.020-0.007 0.059 0 0.171 0.007 0.115 0.010 0.246 0.013 0.295 0.003 0.056-0.026 0.115-0.082 0.164-0.102 0.089-0.22 0.41-0.197 0.532 0.013 0.059 0.039 0.085 0.082 0.085 0.069 0 0.187 0.118 0.19 0.187 0 0.023-0.026 0.066-0.059 0.098-0.036 0.033-0.072 0.085-0.082 0.115-0.023 0.066 0.023 0.082 0.315 0.102 0.108 0.007 0.203 0.026 0.213 0.046 0.013 0.020 0.056 0.043 0.095 0.056 0.043 0.013 0.131 0.079 0.203 0.144 0.069 0.066 0.154 0.138 0.187 0.158s0.072 0.062 0.092 0.098c0.020 0.033 0.066 0.092 0.102 0.131 0.085 0.085 0.213 0.322 0.213 0.387 0 0.030 0.013 0.052 0.030 0.052s0.039 0.043 0.053 0.098c0.013 0.052 0.033 0.098 0.049 0.098 0.013 0 0.036 0.066 0.046 0.148 0.013 0.082 0.036 0.148 0.053 0.148s0.039 0.056 0.049 0.121c0.013 0.069 0.039 0.161 0.059 0.203 0.053 0.105 0.056 1.287 0.003 1.352-0.020 0.026-0.046 0.112-0.056 0.194-0.010 0.079-0.036 0.151-0.053 0.158-0.020 0.007-0.036 0.056-0.036 0.108 0 0.056-0.020 0.105-0.049 0.115-0.030 0.013-0.049 0.062-0.049 0.128 0 0.062-0.020 0.131-0.046 0.154-0.023 0.026-0.056 0.079-0.066 0.118-0.013 0.039-0.036 0.072-0.053 0.072-0.013 0-0.036 0.026-0.046 0.056-0.039 0.112-0.105 0.203-0.243 0.335-0.075 0.076-0.138 0.141-0.138 0.151 0 0.023-0.125 0.148-0.148 0.148-0.030 0-0.148 0.131-0.148 0.164 0 0.016-0.023 0.033-0.049 0.033s-0.049 0.013-0.049 0.026c0 0.016-0.079 0.069-0.171 0.118-0.095 0.046-0.233 0.121-0.305 0.167-0.072 0.043-0.279 0.125-0.459 0.184s-0.331 0.118-0.338 0.135c-0.007 0.013-0.072 0.026-0.148 0.026-0.075 0.003-0.197 0.023-0.269 0.049s-0.197 0.049-0.279 0.049c-0.082 0.003-0.207 0.023-0.279 0.049-0.161 0.059-1.759 0.072-1.907 0.016-0.046-0.020-0.295-0.049-0.551-0.066-0.604-0.039-1.080-0.089-1.283-0.128-0.24-0.049-0.558-0.102-0.821-0.135-0.125-0.016-0.295-0.046-0.377-0.062-0.082-0.020-0.243-0.049-0.361-0.069-0.404-0.066-0.673-0.121-0.765-0.161-0.108-0.043-0.446-0.049-0.397-0.010 0.016 0.016 0.2 0.062 0.407 0.105 0.207 0.039 0.394 0.085 0.41 0.098 0.020 0.013 0.079 0.033 0.131 0.043 0.056 0.007 0.322 0.056 0.591 0.105 0.272 0.052 0.633 0.105 0.804 0.118s0.387 0.039 0.476 0.059c0.184 0.039 0.643 0.121 0.968 0.174 0.118 0.016 0.827 0.036 1.575 0.043 1.424 0.013 1.503 0.007 1.779-0.135 0.046-0.026 0.151-0.046 0.23-0.046s0.174-0.023 0.21-0.049c0.033-0.026 0.102-0.049 0.154-0.049 0.056 0 0.089-0.016 0.089-0.049s0.033-0.049 0.095-0.049c0.053 0 0.102-0.020 0.115-0.049 0.010-0.026 0.049-0.049 0.085-0.049s0.108-0.026 0.158-0.059c0.049-0.033 0.177-0.118 0.286-0.19 0.253-0.167 0.558-0.453 0.857-0.804 0.312-0.368 0.417-0.571 0.624-1.211 0.095-0.289 0.112-0.394 0.112-0.647 0-0.384-0.092-0.847-0.309-1.569-0.148-0.489-0.184-0.63-0.184-0.725 0-0.052-0.023-0.125-0.049-0.158-0.036-0.046-0.049-0.154-0.049-0.371 0-0.335 0.013-0.364 0.309-0.719 0.053-0.062 0.085-0.121 0.075-0.135-0.030-0.030-0.351 0.315-0.351 0.377 0 0.066-0.112 0.171-0.181 0.171-0.056 0-0.309-0.167-0.312-0.207 0-0.033-0.125-0.154-0.158-0.154-0.053 0-0.138-0.118-0.138-0.187 0-0.089 0.089-0.249 0.207-0.381 0.049-0.059 0.089-0.135 0.089-0.174 0-0.069-0.010-0.072-0.197-0.056-0.226 0.023-0.243 0-0.112-0.174 0.082-0.105 0.098-0.112 0.279-0.112 0.197 0 0.269 0.039 0.174 0.092-0.030 0.016-0.046 0.046-0.033 0.069 0.046 0.072 0.545-0.322 0.794-0.627 0.049-0.062 0.079-0.187 0.046-0.207-0.013-0.010-0.089 0.007-0.164 0.033-0.177 0.062-0.276 0.062-0.328 0-0.036-0.043-0.033-0.069 0.003-0.141 0.066-0.125 0.151-0.204 0.223-0.204 0.033 0 0.105-0.016 0.161-0.036 0.144-0.049 0.249 0.010 0.22 0.128-0.013 0.049-0.036 0.092-0.053 0.098-0.046 0.016-0.036 0.105 0.013 0.105 0.062 0 0.112-0.043 0.135-0.125 0.013-0.039 0.036-0.072 0.053-0.072s0.036-0.046 0.049-0.098c0.013-0.056 0.043-0.098 0.069-0.098s0.046-0.020 0.046-0.039c0-0.066 0.161 0.125 0.184 0.217 0.010 0.046 0.033 0.085 0.046 0.085s0.036 0.053 0.046 0.115c0.013 0.062 0.036 0.115 0.053 0.115 0.020 0 0.033 0.036 0.033 0.082s0.023 0.092 0.049 0.102c0.072 0.030 0.066 0.233-0.013 0.272-0.105 0.059-0.299 0.243-0.299 0.289 0 0.023-0.020 0.043-0.043 0.043-0.026 0-0.062 0.033-0.082 0.072-0.062 0.125-0.118 0.203-0.171 0.246-0.039 0.033-0.039 0.039-0.003 0.043 0.023 0 0.075-0.033 0.115-0.076s0.095-0.085 0.128-0.098c0.030-0.010 0.056-0.043 0.056-0.069 0-0.030 0.036-0.076 0.082-0.105s0.082-0.072 0.082-0.092c0-0.020 0.046-0.066 0.098-0.095 0.056-0.033 0.098-0.072 0.098-0.092 0-0.102 0.177 0.046 0.21 0.18 0.010 0.046 0.036 0.085 0.053 0.085 0.020 0 0.033 0.020 0.033 0.043 0 0.026 0.030 0.079 0.066 0.121s0.066 0.095 0.066 0.121c0 0.039 0.112 0.174 0.148 0.174 0.039 0 0.013-0.161-0.033-0.197-0.026-0.023-0.049-0.059-0.049-0.085 0-0.023-0.066-0.171-0.148-0.322-0.082-0.154-0.148-0.312-0.148-0.348s-0.023-0.076-0.049-0.085c-0.026-0.013-0.049-0.059-0.049-0.112s-0.023-0.098-0.049-0.112c-0.026-0.010-0.049-0.053-0.049-0.098 0-0.043-0.023-0.085-0.049-0.098-0.026-0.010-0.049-0.049-0.049-0.085 0-0.039-0.023-0.092-0.049-0.118-0.026-0.030-0.049-0.079-0.049-0.115 0-0.033-0.013-0.062-0.033-0.062-0.016 0-0.033-0.036-0.033-0.079 0-0.046-0.020-0.102-0.043-0.125-0.026-0.023-0.053-0.112-0.066-0.194-0.010-0.079-0.043-0.19-0.069-0.243-0.030-0.056-0.053-0.141-0.053-0.19 0-0.053-0.023-0.115-0.049-0.141-0.030-0.033-0.049-0.112-0.049-0.21 0-0.089-0.016-0.164-0.036-0.171s-0.043-0.115-0.053-0.24c-0.010-0.128-0.033-0.236-0.046-0.246-0.016-0.010-0.036-0.125-0.049-0.256s-0.033-0.236-0.049-0.236c-0.013 0-0.033-0.062-0.046-0.141-0.013-0.075-0.046-0.167-0.069-0.204-0.026-0.036-0.046-0.105-0.046-0.154 0-0.053-0.013-0.092-0.030-0.092s-0.039-0.046-0.053-0.098c-0.013-0.056-0.036-0.098-0.053-0.098s-0.030-0.020-0.030-0.046c0-0.026-0.020-0.069-0.046-0.092-0.023-0.026-0.056-0.095-0.069-0.151-0.010-0.059-0.033-0.105-0.049-0.105s-0.036-0.046-0.049-0.098c-0.013-0.056-0.033-0.098-0.049-0.098-0.013 0-0.036-0.036-0.046-0.082-0.033-0.125-0.075-0.098-0.125 0.072zM42.174 14.654c0 0.141-0.036 0.19-0.082 0.112-0.030-0.046 0.013-0.259 0.049-0.259 0.020 0 0.033 0.066 0.033 0.148zM41.695 15.052c0.030 0.079-0.013 0.276-0.075 0.348-0.059 0.069-0.295 0.082-0.358 0.020-0.059-0.059-0.053-0.256 0.010-0.256 0.026 0 0.049-0.016 0.049-0.036 0-0.115 0.335-0.181 0.374-0.075zM40.927 16.118c0.056 0.102-0.049 0.226-0.197 0.226-0.049 0-0.102 0.016-0.121 0.036-0.026 0.026-0.046 0.020-0.069-0.026-0.030-0.052-0.013-0.085 0.075-0.184 0.128-0.138 0.256-0.161 0.312-0.052zM40.533 17.493c0 0.033 0.023 0.076 0.053 0.092 0.033 0.020 0.046 0.062 0.039 0.125-0.007 0.079-0.023 0.095-0.092 0.085-0.112-0.013-0.187-0.098-0.213-0.246l-0.023-0.121h0.118c0.095 0 0.118 0.013 0.118 0.066zM41.026 18.032c0 0.020 0.046 0.066 0.098 0.095 0.056 0.033 0.098 0.082 0.098 0.108s0.013 0.046 0.030 0.046c0.016 0 0.039 0.043 0.053 0.095 0.010 0.052 0.039 0.105 0.066 0.115s0.036 0.043 0.026 0.082c-0.016 0.069-0.075 0.095-0.075 0.036 0-0.020-0.023-0.033-0.049-0.033s-0.049-0.016-0.049-0.033c0-0.020-0.020-0.033-0.043-0.033-0.026 0-0.072-0.030-0.108-0.066-0.033-0.036-0.102-0.105-0.151-0.154-0.085-0.079-0.128-0.259-0.075-0.312 0.033-0.030 0.181 0.013 0.181 0.052z"></path>
<path d="M40.139 15.836c-0.023 0.030-0.033 0.059-0.023 0.069s0.033-0.013 0.056-0.049c0.043-0.082 0.026-0.089-0.033-0.020z"></path>
<path d="M35.256 15.911c-0.161 0.010-0.167 0.013-0.115 0.066 0.043 0.046 0.138 0.059 0.466 0.072 0.417 0.020 0.509-0.003 0.417-0.092-0.046-0.046-0.423-0.069-0.768-0.046z"></path>
<path d="M29.072 16.039c0.059 0.007 0.148 0.007 0.197 0s0-0.013-0.108-0.013c-0.108 0-0.148 0.007-0.089 0.013z"></path>
<path d="M28.334 16.138c0.030 0.007 0.076 0.007 0.098 0 0.020-0.010-0.003-0.016-0.059-0.016-0.052 0-0.072 0.007-0.039 0.016z"></path>
<path d="M39.749 16.627c0 0.036 0.010 0.046 0.020 0.020 0.010-0.023 0.007-0.052-0.003-0.062-0.010-0.013-0.020 0.007-0.016 0.043z"></path>
<path d="M45.506 16.755c0.013 0.089 0.036 0.19 0.053 0.22s0.030 0.128 0.030 0.22c0 0.128-0.016 0.174-0.066 0.21-0.059 0.043-0.062 0.059-0.030 0.226 0.030 0.138 0.056 0.194 0.115 0.226 0.043 0.023 0.085 0.066 0.098 0.102 0.010 0.033 0.030 0.059 0.046 0.059 0.013 0 0.033 0.118 0.039 0.263 0.007 0.158 0.026 0.276 0.049 0.289s0.049 0.089 0.062 0.164c0.013 0.076 0.033 0.138 0.049 0.138s0.030 0.036 0.030 0.079c0 0.046 0.023 0.102 0.049 0.131 0.026 0.026 0.049 0.095 0.049 0.151 0 0.059 0.020 0.108 0.049 0.118 0.030 0.013 0.049 0.062 0.049 0.115s0.016 0.095 0.033 0.095c0.046 0 0.039-0.062-0.030-0.282-0.148-0.469-0.443-1.641-0.479-1.884-0.010-0.082-0.049-0.282-0.089-0.443-0.075-0.335-0.144-0.456-0.108-0.197z"></path>
<path d="M39.513 17.090c-0.043 0.052-0.039 0.056 0.013 0.013s0.069-0.069 0.043-0.069c-0.007 0-0.033 0.026-0.056 0.056z"></path>
<path d="M42.109 17.201c0 0.036 0.016 0.056 0.033 0.046 0.020-0.010 0.033-0.043 0.033-0.069s-0.013-0.046-0.033-0.046c-0.016 0-0.033 0.030-0.033 0.069z"></path>
<path d="M43.477 17.27c-0.039 0.141-0.023 0.381 0.026 0.433 0.026 0.026 0.049 0.098 0.049 0.158s0.023 0.151 0.049 0.203c0.026 0.052 0.049 0.177 0.049 0.286s0.023 0.249 0.049 0.315c0.033 0.076 0.049 0.223 0.049 0.417 0 0.2 0.016 0.322 0.046 0.364 0.023 0.036 0.053 0.121 0.066 0.187 0.013 0.069 0.036 0.125 0.053 0.125 0.020 0 0.033 0.039 0.033 0.085s0.030 0.121 0.066 0.167c0.036 0.046 0.066 0.112 0.066 0.144 0 0.036 0.016 0.062 0.033 0.062 0.020 0 0.033 0.030 0.033 0.062 0 0.095 0.036 0.171 0.069 0.148 0.036-0.023 0-0.249-0.043-0.279-0.016-0.010-0.039-0.082-0.049-0.158-0.010-0.072-0.033-0.135-0.046-0.135-0.016 0-0.030-0.052-0.030-0.118s-0.020-0.164-0.046-0.22c-0.062-0.151-0.118-0.404-0.148-0.699-0.016-0.141-0.046-0.302-0.066-0.351-0.020-0.052-0.036-0.171-0.036-0.269 0-0.125-0.013-0.177-0.049-0.194-0.036-0.013-0.049-0.072-0.049-0.246 0-0.171-0.013-0.23-0.049-0.246-0.030-0.010-0.049-0.059-0.049-0.125 0-0.148-0.049-0.223-0.075-0.118z"></path>
<path d="M39.437 17.28c-0.030 0.085-0.023 0.105 0.016 0.039 0.020-0.033 0.030-0.069 0.020-0.076-0.007-0.010-0.023 0.007-0.036 0.036z"></path>
<path d="M39.191 17.415c0 0.036 0.010 0.046 0.020 0.020 0.010-0.023 0.007-0.052-0.003-0.062-0.010-0.013-0.020 0.007-0.016 0.043z"></path>
<path d="M39.319 17.411c0 0.026 0.007 0.049 0.013 0.049s0.020-0.023 0.033-0.049c0.010-0.026 0.003-0.049-0.013-0.049-0.020 0-0.033 0.023-0.033 0.049z"></path>
<path d="M39.454 17.48c0 0.036 0.010 0.046 0.020 0.020 0.010-0.023 0.007-0.052-0.003-0.062-0.010-0.013-0.020 0.007-0.016 0.043z"></path>
<path d="M39.237 17.92c0.007 0.089 0.049 0.125 0.049 0.039 0-0.036-0.013-0.076-0.026-0.085-0.016-0.010-0.026 0.013-0.023 0.046z"></path>
<path d="M39.887 18.051c0 0.052 0.013 0.089 0.030 0.079 0.013-0.010 0.026-0.046 0.026-0.079s-0.013-0.069-0.026-0.079c-0.016-0.010-0.030 0.026-0.030 0.079z"></path>
<path d="M39.486 18.071c0 0.036 0.010 0.046 0.020 0.020 0.010-0.023 0.007-0.052-0.003-0.062-0.010-0.013-0.020 0.007-0.016 0.043z"></path>
<path d="M39.352 18.215c-0.030 0.020-0.033 0.033-0.010 0.033 0.020 0 0.049-0.016 0.059-0.033 0.026-0.039 0.013-0.039-0.049 0z"></path>
<path d="M39.713 18.238c0 0.033 0.016 0.082 0.033 0.108 0.026 0.039 0.033 0.030 0.033-0.039 0-0.049-0.013-0.098-0.033-0.108-0.016-0.010-0.033 0.007-0.033 0.039z"></path>
<path d="M39.828 18.215c0.010 0.016 0.026 0.033 0.036 0.033 0.007 0 0.013-0.016 0.013-0.033 0-0.020-0.016-0.033-0.036-0.033-0.016 0-0.023 0.013-0.013 0.033z"></path>
<path d="M39.91 18.248c0 0.016 0.036 0.033 0.082 0.033s0.082-0.016 0.082-0.033c0-0.020-0.036-0.033-0.082-0.033s-0.082 0.013-0.082 0.033z"></path>
<path d="M39.483 18.38c0 0.016 0.016 0.033 0.036 0.033 0.016 0 0.023-0.016 0.013-0.033-0.010-0.020-0.026-0.033-0.036-0.033-0.007 0-0.013 0.013-0.013 0.033z"></path>
<path d="M39.306 18.406c-0.010 0.016 0.003 0.030 0.030 0.030s0.049-0.013 0.049-0.030c0-0.013-0.013-0.026-0.030-0.026-0.020 0-0.039 0.013-0.049 0.026z"></path>
<path d="M38.945 18.501c-0.020 0.046-0.016 0.049 0.016 0.020 0.023-0.023 0.033-0.049 0.023-0.059s-0.030 0.007-0.039 0.039z"></path>
<path d="M36.546 19.459c-0.095 0.023-0.098 0.023-0.026 0.062 0.039 0.023 0.098 0.039 0.135 0.039s0.072 0.030 0.082 0.066c0.023 0.085 0.197 0.095 0.181 0.010-0.007-0.030-0.046-0.066-0.092-0.076s-0.082-0.039-0.082-0.066c0-0.056-0.059-0.066-0.197-0.036z"></path>
<path d="M46.28 19.742c0 0.052 0.020 0.128 0.046 0.161 0.026 0.036 0.049 0.105 0.049 0.151s0.023 0.115 0.049 0.151c0.026 0.033 0.049 0.125 0.049 0.2s0.023 0.158 0.049 0.187c0.026 0.026 0.049 0.082 0.049 0.125s0.023 0.105 0.049 0.138c0.026 0.036 0.049 0.121 0.049 0.19s0.023 0.18 0.049 0.246c0.026 0.062 0.049 0.154 0.049 0.203 0.003 0.046 0.023 0.121 0.049 0.167s0.046 0.121 0.049 0.171c0 0.049 0.016 0.098 0.033 0.108 0.020 0.013 0.033-0.049 0.033-0.161 0-0.102-0.013-0.184-0.033-0.184-0.016 0-0.033-0.062-0.033-0.141 0-0.076-0.023-0.184-0.056-0.236-0.030-0.059-0.056-0.19-0.059-0.328-0.003-0.131-0.023-0.233-0.046-0.24-0.020-0.007-0.036-0.079-0.036-0.158 0-0.098-0.016-0.151-0.049-0.164-0.030-0.013-0.049-0.062-0.049-0.128 0-0.059-0.023-0.125-0.049-0.148s-0.049-0.059-0.049-0.085c0-0.023-0.020-0.062-0.046-0.085-0.023-0.026-0.066-0.089-0.095-0.141l-0.053-0.098v0.098z"></path>
<path d="M37.022 19.755c0 0.072 0.138 0.118 0.223 0.072 0.046-0.026 0.036-0.039-0.066-0.082-0.154-0.066-0.158-0.066-0.158 0.010z"></path>
<path d="M31.058 19.781c0.105 0.007 0.266 0.007 0.361 0s0.010-0.010-0.19-0.010c-0.197 0-0.276 0.003-0.171 0.010z"></path>
<path d="M44.262 20.477c-0.033 0.052 0.010 0.24 0.049 0.213 0.036-0.023 0.039-0.148 0-0.207-0.020-0.030-0.033-0.033-0.049-0.007z"></path>
<path d="M44.38 20.841c0 0.046 0.007 0.062 0.016 0.039 0.007-0.020 0.007-0.059 0-0.082-0.010-0.020-0.016-0.003-0.016 0.043z"></path>
<path d="M44.475 21.058c0 0.036 0.010 0.046 0.020 0.020 0.010-0.023 0.007-0.052-0.003-0.062-0.010-0.013-0.020 0.007-0.016 0.043z"></path>
<path d="M44.574 21.255c0 0.036 0.010 0.046 0.020 0.020 0.010-0.023 0.007-0.052-0.003-0.062-0.010-0.013-0.020 0.007-0.016 0.043z"></path>
<path d="M25.469 21.284c0 0.036 0.016 0.089 0.033 0.115 0.026 0.039 0.033 0.039 0.033-0.016 0-0.036-0.016-0.089-0.033-0.115-0.026-0.039-0.033-0.039-0.033 0.016z"></path>
<path d="M44.656 21.428c-0.013 0.023-0.016 0.049-0.007 0.059 0.030 0.030 0.062-0.013 0.046-0.059-0.013-0.036-0.020-0.036-0.039 0z"></path>
<path d="M25.534 21.527c0 0.020 0.016 0.043 0.033 0.052 0.020 0.010 0.033-0.003 0.033-0.030 0-0.030-0.013-0.052-0.033-0.052-0.016 0-0.033 0.013-0.033 0.030z"></path>
<path d="M44.757 21.583c-0.043 0.043-0.023 0.177 0.026 0.197 0.026 0.013 0.049 0.056 0.049 0.098 0 0.046 0.023 0.089 0.049 0.098 0.026 0.013 0.049 0.056 0.049 0.095 0 0.043 0.016 0.089 0.033 0.098 0.020 0.013 0.033-0.033 0.033-0.112 0-0.076-0.013-0.135-0.033-0.135-0.016 0-0.043-0.039-0.053-0.092-0.013-0.049-0.039-0.112-0.062-0.138s-0.046-0.069-0.053-0.092c-0.010-0.023-0.026-0.033-0.039-0.020z"></path>
<path d="M46.963 22.095c-0.013 0.135 0.016 0.41 0.046 0.45 0.020 0.023 0.046 0.151 0.056 0.286 0.023 0.345 0.079 0.322 0.092-0.036 0.007-0.223-0.003-0.302-0.036-0.328-0.026-0.016-0.056-0.118-0.069-0.223-0.013-0.102-0.039-0.187-0.056-0.187s-0.033 0.020-0.033 0.039z"></path>
<path d="M45.030 22.265c0 0.046 0.016 0.092 0.033 0.102 0.020 0.013 0.033-0.023 0.033-0.079s-0.013-0.102-0.033-0.102c-0.016 0-0.033 0.036-0.033 0.079z"></path>
<path d="M45.128 22.466c0 0.046 0.016 0.082 0.033 0.082 0.020 0 0.033-0.036 0.033-0.082s-0.013-0.082-0.033-0.082c-0.016 0-0.033 0.036-0.033 0.082z"></path>
<path d="M45.342 22.81c0.010 0.016 0.026 0.033 0.036 0.033 0.007 0 0.013-0.016 0.013-0.033 0-0.020-0.016-0.033-0.036-0.033-0.016 0-0.023 0.013-0.013 0.033z"></path>
<path d="M27.717 23.007c0.092 0.039 0.154 0.039 0.131 0-0.010-0.020-0.059-0.033-0.108-0.030-0.079 0-0.082 0.003-0.023 0.030z"></path>
<path d="M45.424 23.056c0 0.052 0.020 0.082 0.049 0.082 0.033 0 0.049 0.033 0.049 0.095 0 0.052 0.023 0.112 0.049 0.135s0.049 0.069 0.049 0.102c0 0.036 0.013 0.062 0.030 0.062s0.043 0.030 0.053 0.066c0.030 0.098 0.082 0.079 0.082-0.030 0-0.052-0.020-0.102-0.049-0.115-0.026-0.010-0.049-0.039-0.049-0.069 0-0.026-0.013-0.049-0.026-0.049-0.016 0-0.062-0.082-0.108-0.18-0.085-0.194-0.128-0.226-0.128-0.098z"></path>
<path d="M27.897 23.070c0 0.020 0.21 0.085 0.706 0.22 0.499 0.131 0.758 0.174 1.149 0.194 0.266 0.010 0.519 0.043 0.67 0.082 0.263 0.069 0.512 0.085 0.545 0.036 0.010-0.020-0.036-0.043-0.105-0.052-0.069-0.013-0.167-0.033-0.223-0.049-0.052-0.016-0.187-0.030-0.295-0.030-0.108-0.003-0.289-0.026-0.404-0.052s-0.279-0.049-0.368-0.049c-0.089 0-0.279-0.020-0.417-0.046-0.962-0.177-0.971-0.18-0.991-0.21-0.026-0.036-0.266-0.076-0.266-0.043z"></path>
<path d="M47.163 23.414c0 0.18 0.016 0.308 0.049 0.368 0.026 0.052 0.049 0.154 0.049 0.23 0 0.072 0.023 0.161 0.049 0.197 0.026 0.033 0.049 0.105 0.049 0.161 0 0.052 0.023 0.135 0.049 0.18s0.046 0.121 0.049 0.167c0 0.079-0.010 0.085-0.286 0.125-0.446 0.062-0.798 0.079-0.798 0.039 0-0.020-0.023-0.036-0.049-0.036-0.033 0-0.049-0.033-0.049-0.112 0-0.226-0.059-0.144-0.072 0.098-0.007 0.135-0.026 0.256-0.043 0.269-0.020 0.013-0.059 0.072-0.092 0.131-0.056 0.102-0.059 0.115-0.010 0.167 0.030 0.033 0.053 0.089 0.053 0.128 0 0.036 0.016 0.079 0.033 0.089 0.049 0.030 0.039 0.187-0.016 0.259-0.026 0.036-0.049 0.098-0.049 0.141s-0.013 0.076-0.033 0.076c-0.016 0-0.033 0.043-0.033 0.098 0 0.052 0.013 0.098 0.030 0.098s0.036 0.076 0.043 0.171c0.010 0.095 0.036 0.177 0.056 0.184s0.036 0.026 0.036 0.046c0 0.039 0.279 0.315 0.381 0.377 0.194 0.121 0.607 0.272 0.742 0.272 0.043 0 0.105 0.020 0.141 0.046 0.036 0.023 0.121 0.052 0.19 0.066 0.066 0.013 0.121 0.036 0.121 0.052 0 0.020 0.030 0.033 0.062 0.033 0.036 0 0.085 0.023 0.115 0.049 0.026 0.026 0.075 0.049 0.108 0.049s0.089 0.020 0.125 0.046c0.036 0.023 0.148 0.052 0.246 0.059 0.098 0.010 0.184 0.036 0.19 0.056 0.013 0.043 0.203 0.049 0.203 0.007 0-0.016 0.046-0.039 0.098-0.052 0.089-0.020 0.098-0.036 0.098-0.144 0-0.112-0.082-0.233-0.158-0.233-0.013 0-0.043-0.043-0.062-0.095-0.026-0.079-0.026-0.112 0.013-0.164 0.056-0.085 0.118-0.085 0.289-0.003 0.072 0.036 0.151 0.062 0.174 0.066 0.020 0 0.039 0.013 0.039 0.033 0 0.016 0.023 0.033 0.049 0.033 0.030 0 0.059 0.020 0.069 0.046s0.053 0.056 0.098 0.066c0.043 0.013 0.079 0.036 0.079 0.052 0 0.020 0.016 0.033 0.033 0.033 0.020 0 0.059 0.026 0.092 0.056 0.033 0.033 0.095 0.082 0.138 0.108 0.039 0.026 0.092 0.069 0.118 0.089 0.023 0.023 0.056 0.043 0.072 0.043 0.020 0 0.039 0.023 0.053 0.049 0.010 0.026 0.039 0.049 0.062 0.049 0.026 0 0.066 0.020 0.085 0.046 0.020 0.023 0.118 0.052 0.22 0.062s0.203 0.036 0.22 0.052c0.023 0.023 0.19 0.036 0.404 0.036 0.286 0 0.374-0.010 0.407-0.049 0.023-0.026 0.053-0.049 0.069-0.049 0.049 0 0.187-0.164 0.249-0.292 0.010-0.023 0.003-0.069-0.016-0.098-0.023-0.030-0.049-0.076-0.062-0.102s-0.056-0.079-0.098-0.118c-0.043-0.039-0.075-0.082-0.075-0.098s-0.046-0.049-0.102-0.076c-0.059-0.026-0.112-0.072-0.118-0.105-0.010-0.036-0.030-0.062-0.043-0.062-0.043 0-0.131-0.197-0.154-0.338-0.020-0.128-0.105-0.253-0.174-0.253-0.016 0-0.033-0.013-0.033-0.033 0-0.016-0.036-0.039-0.079-0.052-0.046-0.010-0.089-0.039-0.098-0.066s-0.053-0.046-0.098-0.046c-0.043 0-0.085-0.023-0.098-0.049-0.013-0.039-0.112-0.049-0.601-0.043-0.322 0.003-0.604-0.003-0.627-0.020-0.020-0.013-0.039-0.049-0.039-0.085 0-0.069-0.062-0.098-0.22-0.098-0.062 0-0.135-0.023-0.161-0.049-0.030-0.026-0.082-0.049-0.125-0.049-0.039 0-0.102-0.023-0.138-0.049-0.033-0.026-0.102-0.049-0.151-0.049-0.053 0-0.092-0.013-0.092-0.030s-0.033-0.036-0.075-0.049c-0.098-0.023-0.384-0.305-0.466-0.456-0.036-0.066-0.082-0.121-0.105-0.121s-0.043-0.023-0.043-0.049c0-0.026-0.013-0.049-0.033-0.049-0.016 0-0.033-0.023-0.033-0.049s-0.030-0.076-0.066-0.105c-0.049-0.043-0.066-0.098-0.066-0.21 0-0.089-0.016-0.161-0.039-0.167-0.020-0.007-0.043-0.098-0.053-0.2-0.007-0.105-0.026-0.197-0.043-0.207s-0.030-0.066-0.030-0.125c0-0.066-0.026-0.131-0.066-0.167-0.056-0.049-0.066-0.102-0.066-0.318 0-0.148-0.013-0.256-0.033-0.256s-0.033 0.115-0.033 0.276zM47.583 25.029c0.053 0.016 0.072 0.046 0.072 0.115 0 0.121-0.039 0.141-0.181 0.082-0.213-0.092-0.125-0.259 0.108-0.197zM46.441 25.37c0 0.016-0.007 0.033-0.013 0.033-0.010 0-0.026-0.016-0.036-0.033-0.010-0.020-0.003-0.033 0.013-0.033 0.020 0 0.036 0.013 0.036 0.033zM47.721 25.475c0 0.013 0.049 0.026 0.112 0.026 0.115 0 0.217 0.069 0.217 0.144 0 0.052-0.364 0.125-0.407 0.082-0.020-0.016-0.075-0.030-0.131-0.030-0.115 0-0.345-0.098-0.348-0.151 0-0.020 0.049-0.052 0.108-0.069 0.125-0.039 0.45-0.043 0.45-0.003zM48.607 26.115c0 0.016-0.036 0.049-0.075 0.079-0.066 0.049-0.082 0.049-0.138 0.007-0.056-0.039-0.059-0.049-0.016-0.076 0.059-0.039 0.23-0.043 0.23-0.010zM49.047 26.122c0.023 0.036-0.072 0.076-0.115 0.049-0.016-0.010-0.023-0.033-0.013-0.049 0.026-0.039 0.105-0.039 0.128 0zM51.528 27.405c0 0.016-0.013 0.033-0.033 0.033-0.016 0-0.033-0.016-0.033-0.033 0-0.020 0.016-0.033 0.033-0.033 0.020 0 0.033 0.013 0.033 0.033z"></path>
<path d="M22.049 23.588c0.023 0.010 0.052 0.007 0.062-0.003 0.013-0.010-0.007-0.020-0.043-0.016-0.036 0-0.046 0.010-0.020 0.020z"></path>
<path d="M31.501 23.67c0.023 0.023 0.092 0.043 0.154 0.043 0.141 0 0.105-0.033-0.066-0.066-0.108-0.016-0.125-0.013-0.089 0.023z"></path>
<path d="M45.817 23.808c0 0.066 0.016 0.118 0.033 0.118 0.020 0 0.033-0.043 0.033-0.095 0-0.056-0.013-0.108-0.033-0.118-0.020-0.013-0.033 0.026-0.033 0.095z"></path>
<path d="M45.916 24.041c0 0.046 0.016 0.082 0.033 0.082 0.020 0 0.033-0.036 0.033-0.082s-0.013-0.082-0.033-0.082c-0.016 0-0.033 0.036-0.033 0.082z"></path>
<path d="M46.014 24.235c0 0.046 0.016 0.085 0.033 0.085 0.020 0 0.033-0.030 0.033-0.062 0-0.036-0.013-0.076-0.033-0.085-0.020-0.013-0.033 0.016-0.033 0.062z"></path>
<path d="M46.113 24.448c0 0.039 0.016 0.069 0.033 0.069 0.020 0 0.033-0.020 0.033-0.046s-0.013-0.059-0.033-0.069c-0.016-0.010-0.033 0.010-0.033 0.046z"></path>
<path d="M18.478 28.912c0 0.167 0.079 0.217 0.171 0.105 0.076-0.095 0.076-0.154 0.003-0.177-0.033-0.007-0.085-0.026-0.115-0.039-0.052-0.020-0.059-0.003-0.059 0.112z"fill="#000000"></path>
</symbol></defs></svg>